<svg xmlns="http://www.w3.org/2000/svg" width="500" viewBox="0 0 375 374.99999" height="500" version="1.0">
  <defs>
    <clipPath id="a">
      <path d="M137 118.76172h101v138.75H137zm0 0"/>
    </clipPath>
  </defs>
  <path fill="#cea876" d="M304.33594 214.45313c-.2539 1.0664-.59766 2.11718-1.10547 3.08984-.8125 1.3789-1.79688 2.67578-1.97266 4.3164-.65625 4.46485 3.96875 8.4336 8.30078 7.17188 3.2422-.89453 5.28516-3.84766 8.64063-4.60156 3.14844-.61328 7.41015-1.00781 8.16015-4.91406.9922-4.09375-2.71484-6.01954-5.1953-7.98438-2.6836-2.14453-3.2422-5.69922-5.76563-7.91406-3.07031-2.80078-8.60156-1.71485-10.28906 2.10547-1.40235 2.73828.18359 5.8828-.77344 8.73047zm0 0M324.41797 207.78906c-3.20313-.80078-4.64453-5.41797-2.84766-8.08203 1.79688-2.33203 5.36719-2.33984 8.0625-2.03906 2.47656.23437 5.13281 2.10156 4.72266 4.91406-1.125 3.55078-6.625 6.01563-9.9375 5.20703zm0 0M319.22656 229.09766c-3.16797-.8711-6.6875 2.34765-6.4336 5.59375.3711 3.4453 6.45704 6.96484 9.72267 6.22656 2.0078-.39453 3.51171-2.57813 2.77343-4.63672-.79297-2.95313-3.03515-6.29297-6.0625-7.1836zm0 0M335.02344 208.46875c3.76172-.59375 8.46875 1.13672 9.9336 5.01953 2.04687 6.23828-6.98829 8.65234-11.12892 6.19531-4.30859-2.71484-4.59765-10.17968 1.19532-11.21484zm0 0M328.92188 233.98828c3.09765 2.23828 8.0664 2.8086 11.14062.03125 4.57422-4.67578-2.28516-10.86328-7.14453-10.57422-5.08985.46094-8.67578 7.02344-3.9961 10.54297zm0 0M288.85938 274.01172c-2.8047.75-6.16016.80469-8.41407-1.42578-3.8125-3.51953-3.07812-9.40235 1.21485-11.95313 2.8203-1.76562 4.10156-4.76172 5.10156-7.8125 1.20703-2.89453 4.54687-4.57031 7.76953-4.07031 3.1914.4414 5.78516 3.13281 6.26563 6.27734.48437 2.22266.17578 4.70703 1.28515 6.70313.57813 1.04297 1.2539 2.0586 1.79297 3.17969 2.23047 3.76562-.10156 9.08203-4.58984 9.45703-2.04297.21094-3.94532-.40235-5.82813-.76172-1.48828-.26563-3.01562.0664-4.59765.40625zm-7.98829-9.39063c-1.90625 2.83594.28516 7.2422 3.71094 7.53907 3.09375.29687 6.16016-1.50782 9.34375-.875 2.2539.36718 4.66016 1.28515 6.60938.28906 2.64843-1.7539 2.08203-4.38281.27343-7.32031-1.3789-2.03125-1.9414-4.58204-2.02734-6.79297-.125-1.33985-.21094-2.5625-.75781-3.71094-1.03906-2.27734-3.91797-3.4961-6.27735-2.60156-4.59375 1.48828-2.23046 6.95312-8.6953 11.30078-1.06642.73047-1.72267 1.40234-2.1797 2.17187zm0 0"/>
  <path fill="#cea876" d="M302.53516 256.17969c.5703-6.17969 5.99218-6.8086 10.78906-4.26953 4.58203 1.97265 6.1875 7.79687 1.11328 10.0664-4.6836 2.03125-12.4375.72656-11.90234-5.79687zm12.46093.5c-1.11328-2.38672-6.14843-4.67188-8.54296-3.46485-1.87891.98828-2.23047 4.88672-.44922 6.10157 2.11328 1.54296 5.5078 1.26171 7.75.33984 1.29296-.41016 1.76562-1.83984 1.24218-2.97656zm0 0M296.73047 285.39063c-.26953 2.78125-2.89063 4.64453-5.59375 4.17968-2.63672-.41797-5-3.23828-6.26172-5.63672-2.1914-3.78906-.46484-7.43359 3.32813-8.73046 6.32812-2.10547 9.25 5.15234 8.52734 10.1875zm-10.41016-5.66016c-.64062 2.51172 2.91797 6.9961 5.41406 7.4414 4.53516.66016 2.57813-7.78906.41016-9.32812-1.64844-1.48828-5.14062-.23047-5.82422 1.88672zm0 0"/>
  <path fill="#cea876" d="M314.58594 263.63281c5.58984 1.24219 10.55078 8.42969 5.57422 13.33985-3.33985 2.84765-9.4922 1.39843-12.1211-2.02735-3.3711-4.75781-.04687-12.84765 6.54688-11.3125zm4.57422 6.8125c-1.21094-2.58984-5.21094-5.73828-8.32422-3.96094-2.0039 1.34766-2.23438 4.89454-.85547 6.75782.9961 1.23047 2.64062 2.07422 4.23437 2.46094 4.51563 1.01562 6.625-1.6836 4.94532-5.25782zm0 0"/>
  <path fill="#cea876" d="M312.79297 286.82813c-1.26172 3.16015-4.65625 3.87109-7.21875 3.49218-2.51953-.35156-5.0586-2.03906-6.61719-4.16406-4.39453-5.91797 2.36719-12.26172 8.41016-10.32031 4.02344 1.51562 7.2461 6.9961 5.42578 10.99219zm-12.67969-5.83204c-.83203 3.48047 3.3789 6.37891 6.19531 6.79688 4.08985.64453 5.71875-2.46094 3.57422-6.26563-.83203-1.42187-2.10547-2.73437-3.57812-3.33593-2.08594-.79297-5.49219.39062-6.1914 2.80468zm0 0M251.01172 289.1914c-2.21094 1.66016-5.20313 1.4336-7.42188 3.0625-3.60156 2.52344-3.15625 8.83594.8086 10.94923 2.90625 1.59375 6.51562 1.05078 9.36328 2.84765 2.72266 1.74219 5.79297 4.53906 9.2461 2.29297 3.5039-2.23047 2.39843-6.02344 1.97265-9.32031-.41797-3.42578 1.7539-6.30469 1.52344-9.67578-.23438-4.57813-5.53907-7.54297-9.50391-5.51563-1.1211.57422-1.95313 1.45703-2.70703 2.45313-.92969 1.14843-2.05078 2.10937-3.28125 2.90625zm0 0M269.92969 298.67578c-1.65625-2.8086.48437-7.13281 3.70703-7.71875 3.44531-.58594 8.41406 4.3711 8.53906 7.74219-.03515 6.61328-10.08984 3.76172-12.2461-.02344zm0 0M251.17188 310.04688c-1.59375-2.84375-6.45313-3-8.5-.57813-1.73438 2.3789-.79297 5.83594.1953 8.36719.8672 2.32031 3.3125 4.39062 5.89845 3.1914 3.11718-1.8125 4.0703-8.01171 2.40625-10.98046zm0 0M276.94922 306.67188c2.21484 1.61718 3.89453 4.3789 4.05469 7.16796.11328 2.125-.63672 4.94532-3.23829 5.84766-3.95312 1.34375-8.62109-2.50781-9.60546-5.95703-1.14454-4.9414 4.01171-10.48438 8.78906-7.0586zm0 0M254.58594 320.3789c.6211 3.8125 3.70312 7.63282 7.85937 7.89454 3.66797.32031 5.65235-3.98438 4.99219-7.21094-.3086-2.13281-1.32422-4.15625-2.5625-5.29688-3.78516-3.3164-11.1914-1.14843-10.28906 4.61329zm0 0M197.95703 320.35938c-2.51953-1.4375-4.92187-3.8086-4.9375-6.96485-.17578-5.14062 4.375-8.79687 9.32031-7.58203 3.51172.7461 6.02344-.46484 9.12891-1.88281 2.89063-1.30469 6.53125.07422 8.36328 2.60156 1.40625 1.90234 1.85547 4.57813 1.05078 6.8086-1.26953 3.46874-4.78125 5.35156-5.25 9.10156-.34765 1.39062-.76953 2.875-1.61328 4.15234-1.60156 2.76563-6.32812 3.7461-8.9414 1.39453-3.09766-2.71094-3.03516-5.46875-7.1211-7.6289zm1.0039-12.30079c-3.34374.67188-4.92577 5.33594-2.71484 7.97266 1.9922 2.3789 5.41407 3.30469 7.22657 5.99219 1.33203 1.85937 2.3828 4.17578 4.46484 4.86719 3.11328.72265 4.57422-1.65625 5.36719-4.9922.47265-2.39062 1.8789-4.54687 3.3711-6.21484.85937-1.03906 1.65233-2.01562 2.08593-3.16406 1.30078-3.1875-1.64844-7.14453-5.02734-6.79297-2.23438.28516-4.75 2.20703-7.1836 2.44531-2.3789.5547-5.3711-.58203-7.58984-.11328zm0 0M220.23828 317.4375c3.10547-2.7461 7.13672-2.13672 9.22656 1.53906 1.4375 2.32031 2.59375 5.80078 1.60157 8.3086-2.30078 4.91796-7.37891 3.21093-10.46485-.06641-2.77344-2.71875-3.76172-7.01172-.36328-9.78125zm8.45313 9.125c.92578-2.41016-1.08594-7.70313-3.59375-8.47266-2.1211-.60156-5.3086 2.13282-4.5547 4.3711.40626 2.60547 6.40235 8.21484 8.14845 4.10156zm0 0"/>
  <path fill="#cea876" d="M195.47656 333.98438c-2.10547 1.72265-5.35156 1.23828-6.91015-1.01172-1.57032-2.16016-1.2461-5.82422-.44141-8.41407 1.15234-4.26171 4.91797-5.5703 8.53125-3.8164 5.97266 2.97265 2.8711 10.1875-1.17969 13.24219zm-3.35547-11.37891c-2.23047 1.32031-2.88672 7.01172-1.43359 9.08984 2.73047 3.65625 7.32422-3.63672 6.88281-6.30078-.05469-2.21484-3.63672-3.8086-5.44922-2.78906zm0 0M223.49219 331.21875c1.52734 2.5 1.96875 5.9414.99219 8.60547-.94922 2.6211-3.32032 5.11719-6.4922 4.7461-4.3828-.3125-7.69921-5.6836-7.1328-9.96094.90234-5.72657 9.12109-9.14454 12.6328-3.39063zm-1.58594 8.05469c.77344-2.04688.47656-4.86328-.67969-6.85547-2.07031-3.72266-7.2461-1.23047-7.79297 2.34375-.52734 5.00781 5.875 11.35547 8.47266 4.51172zm0 0"/>
  <path fill="#cea876" d="M205.8086 346.36328c-4.96876 1.96875-9.3086-3.26172-9.40235-7.95703-.72266-8.86719 9.47656-10.5 13.34766-3.64844 1.77734 3.92969.15234 10.03125-3.94532 11.60547zm-4.83594-13.11719c-3.04297 1.88282-2.12891 6.90235-.4336 9.19532.625.88671 2.60938 2.66406 4.14063 1.86328 2.7539-1.1289 3.83984-5.91797 2.65234-8.65625-.91406-2.04297-4.15625-3.55469-6.35937-2.40235zm0 0M160.46484 304.33594c-1.0664-.2539-2.11718-.59766-3.08984-1.10547-1.375-.8125-2.67578-1.79688-4.3164-1.97266-4.46485-.65625-8.4297 3.96875-7.17188 8.30078.89453 3.2422 3.84766 5.28516 4.60156 8.64063.61328 3.14844 1.00781 7.41015 4.91406 8.16015 4.09375.9922 6.01953-2.71484 7.98438-5.1953 2.14453-2.6836 5.69922-3.2422 7.91406-5.76563 2.80469-3.07031 1.71484-8.60156-2.10156-10.28906-2.74219-1.40235-5.88672.18359-8.73438-.77344zm0 0M167.13281 324.41797c.79688-3.20313 5.41406-4.64453 8.07813-2.84766 2.33203 1.79688 2.33984 5.36719 2.04297 8.0625-.23828 2.47656-2.10547 5.13672-4.91797 4.72266-3.55078-1.125-6.01563-6.625-5.20313-9.9375zm0 0M145.82031 319.22656c.8711-3.16797-2.34765-6.6875-5.59375-6.4336-3.44531.3711-6.96484 6.45704-6.22656 9.72267.39453 2.0078 2.57813 3.51171 4.64063 2.77343 2.94921-.79297 6.28906-3.03515 7.17968-6.0625zm0 0M166.44922 335.02344c.59375 3.76172-1.13281 8.46875-5.01953 9.9336-6.23828 2.04687-8.65235-6.98829-6.19531-11.12892 2.71484-4.30859 10.17968-4.59765 11.21484 1.19532zm0 0M140.92969 328.92188c-2.23828 3.09765-2.8086 8.0664-.03125 11.14062 4.67578 4.57422 10.86328-2.28516 10.57422-7.14453-.46094-5.08985-7.02344-8.67578-10.54297-3.9961zm0 0M100.90625 288.85938c-.75-2.8047-.80469-6.16016 1.42578-8.41407 3.51953-3.8125 9.40234-3.07812 11.95703 1.21485 1.76172 2.8203 4.75781 4.10156 7.8086 5.10156 2.89843 1.20703 4.5703 4.54687 4.07421 7.76953-.4453 3.1914-3.13671 5.78516-6.28124 6.26563-2.22266.48437-4.70704.17578-6.70313 1.28515-1.04297.57813-2.0586 1.2539-3.17969 1.79297-3.76562 2.23047-9.08203-.10156-9.45703-4.58984-.21094-2.04297.40234-3.94532.76172-5.82813.26953-1.48828-.0664-3.01562-.40625-4.59765zm9.39063-7.98829c-2.83594-1.90625-7.2422.28516-7.53907 3.71094-.29687 3.09375 1.51172 6.16016.875 9.34375-.36719 2.2539-1.28515 4.66016-.28906 6.60938 1.75781 2.64843 4.38672 2.08203 7.32031.27343 2.03125-1.3789 4.58203-1.9414 6.79297-2.02734 1.33984-.125 2.5664-.21094 3.71094-.75781 2.27734-1.03906 3.4961-3.91797 2.60547-6.27344-1.48828-4.59766-6.95703-2.23438-11.30469-8.69922-.73047-1.0664-1.40234-1.72265-2.17188-2.17969zm0 0"/>
  <path fill="#cea876" d="M118.73828 302.53516c6.17969.5703 6.8086 5.99218 4.26953 10.78906-1.97265 4.58203-7.79687 6.1875-10.0664 1.11328-2.03125-4.6836-.72657-12.4375 5.79687-11.90234zm-.4961 12.46093c2.38282-1.11328 4.66798-6.14843 3.46094-8.54687-.98828-1.875-4.88671-2.22656-6.10156-.44531-1.54297 2.11328-1.26172 5.5078-.33984 7.75.41016 1.29296 1.84375 1.76562 2.98047 1.24218zm0 0M89.52734 296.73047c-2.78125-.26953-4.64453-2.89063-4.17968-5.59375.41796-2.63672 3.23828-5 5.64062-6.26172 3.78516-2.1914 7.42969-.46484 8.72656 3.32813 2.10547 6.32812-5.15234 9.25-10.1875 8.52734zm5.66016-10.41016c-2.51172-.64062-6.9961 2.91797-7.4375 5.41406-.66016 4.53516 7.78516 2.57813 9.32422.41016 1.48828-1.64844.23047-5.14062-1.88672-5.82422zm0 0"/>
  <path fill="#cea876" d="M111.28516 314.58594c-1.2422 5.58984-8.4297 10.55078-13.33985 5.57422-2.84765-3.33985-1.39844-9.4922 2.02735-12.1211 4.7578-3.3711 12.84765-.04687 11.3125 6.54688zm-6.8125 4.57422c2.59375-1.21094 5.73828-5.21094 3.96484-8.32422-1.34766-2.0039-4.89844-2.23438-6.76172-.85547-3.98828 3.3164-3.8164 12.10937 2.79688 9.17969zm0 0"/>
  <path fill="#cea876" d="M88.08984 312.79297c-3.16015-1.26172-3.87109-4.65625-3.48828-7.21875.34766-2.51953 2.03516-5.0586 4.16016-6.61719 5.91797-4.39453 12.26172 2.36719 10.32031 8.41016-1.51172 4.02344-6.9961 7.2461-10.99219 5.42578zm5.83594-12.67969c-3.48047-.83203-6.38281 3.3789-6.80078 6.19531-.64453 4.08985 2.46484 5.71875 6.26953 3.57422 1.41797-.83203 2.73047-2.10547 3.33203-3.57812.79297-2.08594-.39062-5.49219-2.80078-6.1914zm0 0M85.72656 251.01172c-1.66015-2.21094-1.4336-5.20313-3.0625-7.42188-2.52344-3.60156-8.83594-3.15625-10.94922.8086-1.59375 2.90625-1.05078 6.51562-2.84765 9.36328-1.74219 2.72266-4.53906 5.79297-2.29297 9.2461 2.23047 3.5039 6.02344 2.39843 9.32031 1.97265 3.42578-.41797 6.30469 1.7539 9.67969 1.52344 4.57812-.23438 7.54297-5.53907 5.51172-9.50391-.57422-1.1211-1.45703-1.95313-2.45313-2.70703-1.14453-.92969-2.10937-2.05078-2.90625-3.28125zm0 0M76.24219 269.92969c2.8086-1.65625 7.13672.48437 7.71875 3.70703.58984 3.44531-4.3711 8.41406-7.74219 8.53906-6.61328-.03515-3.76172-10.08984.02344-12.2461zm0 0M64.8711 251.17188c2.84374-1.59375 3-6.45313.57812-8.5-2.3789-1.73438-5.83594-.79297-8.36719.1953-2.32031.8672-4.39062 3.3125-3.1914 5.89845 1.8125 3.11718 8.01171 4.0703 10.98046 2.40625zm0 0M68.2461 276.94922c-1.6172 2.21484-4.37891 3.89453-7.16797 4.05469-2.125.11328-4.94532-.63672-5.84766-3.23829-1.34375-3.95312 2.50781-8.62109 5.95703-9.60546 4.9414-1.14454 10.48438 4.01171 7.0586 8.78906zm0 0M54.53906 254.58594c-3.8125.6211-7.63281 3.70312-7.89453 7.85937-.32031 3.66797 3.98438 5.65235 7.21094 4.99219 2.13672-.3086 4.15625-1.32422 5.29687-2.5625 3.31641-3.78516 1.14844-11.1914-4.61328-10.28906zm0 0M54.5586 197.95703c1.4375-2.51953 3.80859-4.92187 6.96484-4.9375 5.14062-.17578 8.79687 4.3711 7.58203 9.32031-.7461 3.51172.46484 6.02344 1.88281 9.12891 1.3086 2.89063-.07422 6.53125-2.59766 8.36328-1.90234 1.40625-4.58203 1.85547-6.8125 1.05078-3.46874-1.26953-5.35156-4.78125-9.10156-5.25-1.39062-.34765-2.875-.76953-4.15234-1.61328-2.76563-1.60156-3.7461-6.32812-1.39453-8.9414 2.71093-3.09766 5.46875-3.03516 7.6289-7.1211zm12.30078 1.0039c-.67188-3.34374-5.33594-4.92577-7.97266-2.71484-2.375 1.9922-3.30469 5.41407-5.99219 7.22657-1.85937 1.33203-4.17578 2.3828-4.86719 4.46484-.72265 3.11328 1.66016 4.57422 4.9922 5.36719 2.39062.47265 4.55077 1.8789 6.21874 3.3711 1.03906.85937 2.01172 1.65233 3.16016 2.08593 3.1875 1.30078 7.14453-1.64844 6.79297-5.02734-.28516-2.23438-2.20704-4.75-2.44532-7.1836-.55468-2.3789.58204-5.375.11329-7.58984zm0 0M57.48047 220.23828c2.7461 3.10547 2.13672 7.13672-1.53906 9.22656-2.32032 1.4375-5.79688 2.59375-8.3086 1.60157-4.91797-2.30078-3.21093-7.37891.0664-10.46485 2.71876-2.77344 7.01173-3.76172 9.78126-.36328zm-9.125 8.45313c2.41016.92578 7.70312-1.08594 8.47656-3.59375.59766-2.1211-2.13281-5.3086-4.3711-4.5547-2.60937.40626-8.21874 6.40235-4.10546 8.14845zm0 0"/>
  <path fill="#cea876" d="M40.9336 195.47656c-1.72266-2.10547-1.23829-5.35156 1.01171-6.91015 2.16016-1.57032 5.82813-1.2461 8.41407-.44141 4.26562 1.15234 5.5703 4.91797 3.8164 8.53125-2.97266 5.97266-10.1875 2.8711-13.24219-1.17969zm11.3789-3.35547c-1.32031-2.23047-7.01172-2.88672-9.08984-1.43359-3.65625 2.73047 3.64062 7.32422 6.30468 6.88281 2.21094-.05469 3.8047-3.63672 2.78516-5.44922zm0 0M43.69922 223.49219c-2.4961 1.52734-5.9414 1.96875-8.60156.99219-2.6211-.94922-5.1211-3.32032-4.75-6.4922.3125-4.3828 5.68359-7.69921 9.96093-7.1328 5.72657.90234 9.14844 9.12109 3.39063 12.6328zm-8.05469-1.58594c2.04688.77344 4.86328.47656 6.85547-.67969 3.72266-2.07031 1.23047-7.2461-2.34375-7.79297-5.00781-.52734-11.35547 5.875-4.51172 8.47266zm0 0"/>
  <path fill="#cea876" d="M28.5586 205.8086c-1.97266-4.96876 3.26171-9.3086 7.95312-9.40235 8.86719-.72266 10.5 9.47656 3.64844 13.34766-3.9297 1.77734-10.03125.15234-11.60157-3.94532zm13.11328-4.83594c-1.88282-3.04297-6.90235-2.12891-9.19532-.4336-.88672.625-2.66015 2.60938-1.86328 4.14063 1.1289 2.7539 5.91797 3.83984 8.65625 2.65234 2.04297-.91406 3.5586-4.15625 2.40234-6.35937zm0 0M70.58203 160.46484c.2539-1.0664.59766-2.11718 1.10547-3.08984.8125-1.375 1.79688-2.67578 1.97656-4.3164.65235-4.46485-3.97265-8.4297-8.30469-7.17188-3.24218.89453-5.28515 3.84766-8.64062 4.60156-3.14844.61328-7.41016 1.00781-8.16016 4.91406-.99218 4.09375 2.71485 6.01953 5.19532 7.98438 2.68359 2.14453 3.24218 5.69922 5.76562 7.91406 3.07031 2.80469 8.60156 1.71484 10.28906-2.10156 1.40235-2.74219-.18359-5.88672.77344-8.73438zm0 0M50.5 167.13281c3.20703.79688 4.64453 5.41406 2.85156 8.07813-1.80078 2.33203-5.3711 2.33984-8.0625 2.04297-2.48047-.23828-5.13672-2.10547-4.72656-4.91797 1.125-3.55078 6.625-6.01563 9.9375-5.20313zm0 0M55.6914 145.82031c3.17188.8711 6.6875-2.34765 6.4336-5.59375-.3711-3.44531-6.45703-6.96484-9.72266-6.22656-2.0078.39453-3.51172 2.57813-2.77343 4.64063.79297 2.94921 3.03906 6.28906 6.0625 7.17968zm0 0M39.89844 166.44922c-3.76563.59375-8.47266-1.13281-9.9375-5.01953-2.04688-6.23828 6.98828-8.65235 11.1289-6.19531 4.3086 2.71484 4.59766 10.17968-1.1914 11.21484zm0 0M45.9961 140.92969c-3.09766-2.23828-8.0625-2.8086-11.14063-.03125-4.57422 4.67578 2.28516 10.86328 7.14453 10.57422 5.08984-.46094 8.67578-7.02344 3.9961-10.54297zm0 0M86.0625 100.90625c2.80078-.75 6.15625-.80469 8.41406 1.42578 3.8086 3.51953 3.07813 9.40234-1.21875 11.95703-2.82031 1.76172-4.10156 4.75781-5.10156 7.8086-1.20703 2.89843-4.54297 4.5703-7.76953 4.07421-3.1914-.4453-5.78516-3.13671-6.26172-6.28124-.48828-2.22266-.17969-4.70704-1.28906-6.70313-.57422-1.04297-1.25-2.0586-1.79297-3.17969-2.23047-3.76562.10156-9.08203 4.58984-9.45703 2.04297-.21094 3.94922.40234 5.82813.76172 1.48828.26563 3.01562-.0664 4.60156-.40625zm7.98438 9.39063c1.90624-2.83594-.28516-7.2422-3.71094-7.53907-3.09375-.29687-6.16016 1.51172-9.34375.875-2.2539-.36719-4.66016-1.28515-6.60938-.28906-2.64844 1.75781-2.08203 4.38672-.27344 7.32031 1.37891 2.03125 1.94141 4.58203 2.02735 6.79297.125 1.33984.21094 2.5664.75781 3.71094 1.03906 2.27734 3.91797 3.4961 6.27734 2.60547 4.59376-1.48828 2.23047-6.95703 8.69532-11.30469 1.0664-.73047 1.72265-1.40234 2.17969-2.17188zm0 0"/>
  <path fill="#cea876" d="M72.38281 118.73828c-.57031 6.17969-5.98828 6.8086-10.78906 4.26953-4.58203-1.97265-6.1836-7.79687-1.11328-10.0664 4.6836-2.03125 12.4375-.72657 11.90234 5.79687zm-12.46094-.4961c1.11329 2.38282 6.14844 4.66798 8.54688 3.46094 1.875-.98828 2.22656-4.88671.44531-6.10156-2.11328-1.54297-5.50781-1.26172-7.75-.33984-1.29297.41016-1.76562 1.84375-1.24218 2.98047zm0 0M78.1875 89.52734c.26953-2.78125 2.89063-4.64453 5.59375-4.17968 2.63672.41796 5 3.23828 6.26172 5.64062 2.1914 3.78516.46484 7.42969-3.32813 8.72656-6.32812 2.10547-9.24609-5.15234-8.52734-10.1875zm10.41016 5.66016c.64062-2.51172-2.91797-6.9961-5.41407-7.4375-4.53515-.66016-2.57812 7.78516-.40625 9.32422 1.64844 1.48828 5.13672.23047 5.82032-1.88672zm0 0"/>
  <path fill="#cea876" d="M60.33203 111.28516c-5.58984-1.2422-10.55078-8.4297-5.57422-13.33985 3.33985-2.84765 9.49219-1.39844 12.125 2.02735 3.36719 4.7578.04297 12.84765-6.55078 11.3125zm-4.57422-6.8125c1.21094 2.59375 5.21094 5.73828 8.32422 3.96484 2.44531-1.75781 2.29688-6.3086-.35156-7.875-4.0664-2.88281-10.54297-1.84375-7.97266 3.91016zm0 0"/>
  <path fill="#cea876" d="M62.125 88.08984c1.26563-3.16015 4.66016-3.87109 7.21875-3.48828 2.51953.34766 5.0625 2.03516 6.61719 4.16016 4.39453 5.91797-2.36719 12.26172-8.41016 10.32031-4.02344-1.51172-7.2461-6.9961-5.42578-10.99219zm12.67969 5.83594c.83203-3.48047-3.3789-6.38281-6.19531-6.80078-4.08985-.64453-5.71876 2.46484-3.57032 6.26953.82813 1.41797 2.10156 2.73047 3.57422 3.33203 2.08594.79297 5.49219-.38672 6.1914-2.80078zm0 0M123.90625 85.72656c2.21484-1.66015 5.20313-1.4336 7.42188-3.0625 3.60156-2.52344 3.15625-8.83594-.8086-10.94922-2.90625-1.59375-6.51172-1.05078-9.36328-2.84765-2.72266-1.74219-5.79297-4.53906-9.2461-2.29297-3.5039 2.23047-2.39843 6.02344-1.97265 9.32031.41797 3.42578-1.7539 6.30469-1.52344 9.67969.23438 4.57812 5.53906 7.54297 9.5039 5.51172 1.1211-.57422 1.95313-1.45703 2.70704-2.45313.92969-1.14453 2.05078-2.10937 3.28125-2.90625zm0 0M104.98828 76.24219c1.65625 2.8086-.48437 7.13672-3.70703 7.71875-3.44531.58984-8.41406-4.3711-8.53906-7.74219.03515-6.61328 10.08984-3.76172 12.2461.02344zm0 0M123.7461 64.8711c1.59374 2.84374 6.45312 3 8.5.57812 1.73437-2.3789.79296-5.83594-.19532-8.36719-.86719-2.32031-3.3125-4.39062-5.89844-3.1914-3.11718 1.8125-4.0703 8.01171-2.40625 10.98046zm0 0M97.96875 68.2461c-2.21484-1.6172-3.89453-4.37891-4.05469-7.16797-.11328-2.125.64063-4.94532 3.23828-5.84766 3.95313-1.34375 8.6211 2.50781 9.60547 5.95703 1.14844 4.9414-4.01172 10.48438-8.78906 7.0586zm0 0M120.33203 54.53906c-.6211-3.8125-3.70312-7.63281-7.85937-7.89453-3.66797-.32031-5.64844 3.98438-4.9922 7.21094.3086 2.13672 1.32423 4.15625 2.56642 5.29687 3.78124 3.31641 11.1875 1.14844 10.28515-4.61328zm0 0M176.96094 54.5586c2.51953 1.4375 4.92578 3.80859 4.9375 6.96484.17578 5.14062-4.3711 8.79687-9.32031 7.58203-3.51172-.7461-6.02344.46484-9.12891 1.88281-2.89063 1.3086-6.53125-.07422-8.36328-2.59766-1.40235-1.90234-1.85547-4.58203-1.05078-6.8125 1.26953-3.46874 4.78125-5.35156 5.25-9.10156.34765-1.39062.76953-2.875 1.61328-4.15234 1.60156-2.76563 6.32812-3.7461 8.9414-1.39453 3.09766 2.71093 3.03516 5.46875 7.1211 7.6289zm-1.0039 12.30078c3.34374-.67188 4.92968-5.33594 2.71483-7.97266-1.99218-2.375-5.41015-3.30469-7.22656-5.99219-1.33203-1.85937-2.38281-4.17578-4.46484-4.86719-3.11328-.72265-4.57422 1.66016-5.36719 4.9922-.47266 2.39062-1.8789 4.55077-3.3711 6.21874-.85937 1.03516-1.65234 2.01172-2.08593 3.16016-1.30078 3.1875 1.64844 7.14453 5.02734 6.79297 2.23438-.28516 4.75-2.20704 7.1836-2.44532 2.3789-.55468 5.375.58204 7.58984.11329zm0 0M154.67969 57.48047c-3.10547 2.7461-7.13672 2.13672-9.22266-1.53906-1.4414-2.32032-2.59766-5.79688-1.60547-8.3086 2.30078-4.91797 7.3789-3.21093 10.46485.0664 2.77343 2.71876 3.76172 7.01173.36328 9.78126zm-8.45313-9.125c-.92578 2.41016 1.08594 7.70312 3.59375 8.47656 2.1211.59766 5.3086-2.13281 4.55469-4.3711-.40625-2.60937-6.39844-8.21874-8.14844-4.10546zm0 0"/>
  <path fill="#cea876" d="M179.4414 40.9336c2.10938-1.72266 5.35548-1.23438 6.91407 1.01171 1.5664 2.16016 1.24219 5.82422.4375 8.41407-1.15234 4.26562-4.91406 5.5703-8.53125 3.8164-5.97266-2.97266-2.8711-10.1875 1.17969-13.24219zm3.35548 11.3789c2.23046-1.32031 2.88671-7.01172 1.4375-9.08984-2.73438-3.65625-7.32813 3.64062-6.88672 6.30468.05859 2.21094 3.63672 3.8047 5.44922 2.78516zm0 0M151.42578 43.69922c-1.52734-2.4961-1.96875-5.9414-.99219-8.60156.95313-2.6211 3.32032-5.1211 6.4961-4.75 4.3789.3125 7.69531 5.68359 7.1289 9.96093-.90234 5.72657-9.12109 9.14844-12.6328 3.39063zm1.58594-8.05469c-.76953 2.04688-.47656 4.86328.6836 6.85547 2.0664 3.72266 7.24218 1.23047 7.78905-2.34375.52735-5.00781-5.875-11.35547-8.47265-4.51172zm0 0"/>
  <path fill="#cea876" d="M169.10938 28.5586c4.96875-1.97266 9.30859 3.26171 9.40234 7.95312.72266 8.86719-9.47656 10.5-13.34766 3.64844-1.77734-3.9297-.15234-10.03125 3.94531-11.60157zm4.83593 13.11328c3.04297-1.88282 2.1289-6.90235.4336-9.19532-.6211-.88672-2.60938-2.66015-4.14063-1.86328-2.7539 1.1289-3.83594 5.91797-2.65234 8.65625.91406 2.04297 4.15625 3.5586 6.35937 2.40234zm0 0M214.45313 70.58203c1.0664.2539 2.11718.59766 3.08984 1.10547 1.3789.8125 2.67578 1.79688 4.3164 1.97656 4.46485.65235 8.4336-3.97265 7.17188-8.30469-.89453-3.24218-3.84766-5.28515-4.60156-8.64062-.61328-3.14844-1.00781-7.41016-4.91406-8.16016-4.09375-.99218-6.01954 2.71485-7.98438 5.19532-2.14453 2.68359-5.69922 3.24218-7.91406 5.76562-2.80078 3.07031-1.71485 8.60156 2.10547 10.28906 2.73828 1.40235 5.8828-.18359 8.73047.77344zm0 0M207.78516 50.5c-.79688 3.20703-5.41407 4.64453-8.07813 2.85156-2.33203-1.80078-2.33984-5.3711-2.03906-8.0625.23437-2.48047 2.10156-5.13672 4.91406-4.72656 3.55078 1.125 6.01563 6.625 5.20313 9.9375zm0 0M229.09766 55.6914c-.8711 3.17188 2.34765 6.6875 5.59375 6.4336 3.4453-.3711 6.96484-6.45703 6.22656-9.72266-.39453-2.0078-2.57813-3.51172-4.63672-2.77343-2.95313.79297-6.29297 3.03906-7.1836 6.0625zm0 0M208.46875 39.89844c-.59375-3.76563 1.13672-8.46875 5.01953-9.9375 6.23828-2.04688 8.65234 6.98828 6.19531 11.1289-2.71484 4.3086-10.17968 4.59766-11.21484-1.1914zm0 0M233.98828 45.9961c2.23828-3.09766 2.8086-8.0625.03125-11.14063-4.67578-4.57422-10.86328 2.28516-10.57422 7.14453.46094 5.08984 7.02344 8.67578 10.54297 3.9961zm0 0M274.01172 86.0625c.75 2.80078.80469 6.15625-1.42578 8.41406-3.51953 3.8086-9.40235 3.07813-11.95313-1.21875-1.76562-2.82031-4.76172-4.10156-7.8125-5.10156-2.89453-1.20703-4.57031-4.54297-4.07031-7.76953.4414-3.1914 3.13281-5.78516 6.27734-6.26172 2.22266-.48828 4.70703-.17969 6.70313-1.28906 1.04297-.57422 2.0586-1.25 3.17969-1.79297 3.76562-2.23047 9.08203.10156 9.45703 4.58984.21094 2.04297-.40235 3.94922-.76172 5.82813-.26563 1.48828.0664 3.01562.40625 4.60156zm-9.39063 7.98438c2.83594 1.90624 7.2422-.28516 7.53907-3.71094.29687-3.09375-1.50782-6.16016-.875-9.34375.36718-2.2539 1.28515-4.66016.28906-6.60938-1.7539-2.64844-4.38281-2.08203-7.32031-.27344-2.03125 1.37891-4.58204 1.94141-6.79297 2.02735-1.33985.125-2.5625.21094-3.71094.75781-2.27734 1.03906-3.4961 3.91797-2.60156 6.27734 1.48828 4.59376 6.95312 2.23047 11.30078 8.69532.73047 1.0664 1.40234 1.72265 2.17187 2.17969zm0 0"/>
  <path fill="#cea876" d="M256.17969 72.38281c-6.17969-.57031-6.8086-5.98828-4.26953-10.78906 1.97265-4.58203 7.79687-6.1836 10.0664-1.11328 2.03125 4.6836.72656 12.4375-5.79687 11.90234zm.4961-12.46094c-2.38282 1.11329-4.66798 6.14844-3.46095 8.54688.98828 1.875 4.88672 2.22656 6.10157.44531 1.54296-2.11328 1.26171-5.50781.33984-7.75-.41016-1.29297-1.83984-1.76562-2.98047-1.24218zm0 0M285.39063 78.1875c2.78125.26953 4.64453 2.89063 4.18359 5.59375-.42188 2.64063-3.24219 5-5.64063 6.26172-3.78906 2.1914-7.43359.46484-8.73046-3.32813-2.10547-6.32812 5.15234-9.24609 10.1875-8.52734zm-5.66016 10.41016c2.51172.64062 6.9961-2.91797 7.4414-5.41407.66016-4.53515-7.78906-2.57812-9.32812-.40625-1.48828 1.64844-.23047 5.13672 1.88672 5.82032zm0 0"/>
  <path fill="#cea876" d="M263.63281 60.33203c1.24219-5.58984 8.42969-10.55078 13.33985-5.57422 2.84765 3.33985 1.39843 9.49219-2.02735 12.125-4.75781 3.36719-12.84765.04297-11.3125-6.55078zm6.8125-4.57422c-2.58984 1.21094-5.73828 5.21094-3.96094 8.32422 1.34766 2.0039 4.89454 2.23438 6.75782.85547 1.23047-.9961 2.07422-2.64063 2.46094-4.23438 1.01562-4.51562-1.6836-6.625-5.25782-4.9453zm0 0"/>
  <path fill="#cea876" d="M286.82813 62.125c3.16015 1.26563 3.87109 4.66016 3.49218 7.21875-.35156 2.51953-2.03906 5.0625-4.16406 6.61719-5.91797 4.39453-12.26172-2.36719-10.32031-8.41016 1.51562-4.02344 6.9961-7.2461 10.99219-5.42578zm-5.83204 12.67969c3.48047.83203 6.37891-3.3789 6.79688-6.19531.64453-4.08985-2.46094-5.71876-6.26563-3.57032-1.42187.82813-2.73437 2.10156-3.33593 3.57422-.79297 2.08594.39062 5.49219 2.80468 6.1914zm0 0M289.1914 123.90625c1.66016 2.21484 1.4336 5.20313 3.0625 7.42188 2.52344 3.60156 8.83594 3.15625 10.94923-.8086 1.59375-2.90625 1.05078-6.51172 2.84765-9.36328 1.74219-2.72266 4.53906-5.79297 2.29297-9.2461-2.23047-3.5039-6.02344-2.39843-9.32031-1.97265-3.42578.41797-6.30469-1.7539-9.67578-1.52344-4.57813.23438-7.54297 5.53906-5.51563 9.5039.57422 1.1211 1.45703 1.95313 2.45313 2.70704 1.14843.92969 2.10937 2.05078 2.90625 3.28125zm0 0M298.67578 104.98828c-2.8086 1.65625-7.13281-.48437-7.71875-3.70703-.58594-3.44531 4.3711-8.41406 7.74219-8.53906 6.61328.03515 3.76172 10.08984-.02344 12.2461zm0 0M310.04688 123.7461c-2.84375 1.59374-3 6.45312-.57813 8.5 2.3789 1.73437 5.83594.79296 8.36719-.19532 2.32031-.86719 4.39062-3.3125 3.1914-5.89844-1.8125-3.11718-8.01171-4.0703-10.98046-2.40625zm0 0M306.67188 97.96875c1.61718-2.21484 4.3789-3.89453 7.16796-4.05469 2.125-.11328 4.94532.64063 5.84766 3.23828 1.34375 3.95313-2.50781 8.6211-5.95703 9.60547-4.9414 1.14844-10.48438-4.01172-7.0586-8.78906zm0 0M320.3789 120.33203c3.8125-.6211 7.63282-3.70312 7.89454-7.85937.32031-3.66797-3.98438-5.64844-7.21094-4.9922-2.13281.3086-4.15625 1.32423-5.29688 2.56642-3.3164 3.78124-1.14843 11.1875 4.61329 10.28515zm0 0M320.35938 176.96094c-1.4375 2.51953-3.8086 4.92578-6.96485 4.9375-5.14062.17578-8.79687-4.3711-7.58203-9.32031.7461-3.51172-.46484-6.01954-1.88281-9.12891-1.30469-2.89063.07422-6.53125 2.60156-8.36328 1.90234-1.40235 4.57813-1.85547 6.8086-1.05078 3.46874 1.26953 5.35156 4.78125 9.10156 5.25 1.39062.34765 2.875.76953 4.15234 1.61328 2.76563 1.60156 3.7461 6.32812 1.39453 8.9414-2.71094 3.09766-5.46875 3.03516-7.6289 7.1211zm-12.30079-1.0039c.67188 3.34374 5.33594 4.92968 7.97266 2.71483 2.3789-1.99218 3.30469-5.41015 5.99219-7.22656 1.85937-1.33203 4.17578-2.38281 4.86719-4.46484.72265-3.11328-1.65625-4.57422-4.9922-5.36719-2.39062-.47266-4.55077-1.8789-6.21484-3.3711-1.03906-.85937-2.01562-1.65234-3.16406-2.08593-3.1875-1.30078-7.14453 1.64844-6.79297 5.02734.28516 2.23438 2.20703 4.75 2.44531 7.1836.5547 2.3789-.58203 5.375-.11328 7.58984zm0 0M317.4375 154.67969c-2.7461-3.10547-2.13672-7.13672 1.53906-9.22266 2.32031-1.4414 5.80078-2.59766 8.3086-1.60547 4.91796 2.30078 3.21093 7.3789-.06641 10.46485-2.71875 2.77343-7.01172 3.76172-9.78125.36328zm9.125-8.45313c-2.41016-.92578-7.70313 1.08594-8.47266 3.59375-.60156 2.1211 2.13282 5.3086 4.3711 4.55469 2.60547-.40625 8.21484-6.39844 4.10156-8.14844zm0 0"/>
  <path fill="#cea876" d="M333.98438 179.4414c1.72265 2.10938 1.23828 5.35548-1.01172 6.91407-2.16016 1.5664-5.82422 1.24219-8.41407.4375-4.26171-1.15234-5.5703-4.91406-3.8164-8.53125 2.97265-5.97266 10.1875-2.8711 13.24219 1.17969zm-11.37891 3.35548c1.32031 2.23046 7.01172 2.88671 9.08984 1.4375 3.65625-2.73438-3.63672-7.32813-6.30078-6.88672-2.21484.05859-3.8086 3.63672-2.78906 5.44922zm0 0M331.21875 151.42578c2.5-1.52734 5.9414-1.96875 8.60547-.99219 2.6211.95313 5.11719 3.32032 4.7461 6.4961-.3125 4.3789-5.6836 7.69531-9.95704 7.1289-5.73047-.90234-9.14844-9.12109-3.39453-12.6328zm8.05469 1.58594c-2.04297-.76953-4.86328-.47656-6.85547.6836-3.72266 2.0664-1.23047 7.24218 2.34375 7.78905 5.00781.52735 11.35547-5.875 4.51172-8.47265zm0 0"/>
  <path fill="#cea876" d="M346.36328 169.10938c1.96875 4.96875-3.26172 9.30859-7.95703 9.40234-8.86719.72266-10.4961-9.47656-3.64844-13.34766 3.9336-1.77734 10.03125-.15234 11.60547 3.94531zm-13.11719 4.83593c1.88282 3.04297 6.90235 2.13281 9.19532.4336.88671-.6211 2.66406-2.60938 1.86328-4.14063-1.1289-2.7539-5.91797-3.83594-8.65625-2.65234-2.04297.91406-3.55469 4.15625-2.40235 6.35937zm0 0"/>
  <g clip-path="url(#a)">
    <path fill="#070304" d="M143.35156 246.33203c1.01953-4.16797 3.74219-6.32422 8.04297-6.70312-.625-1.00391-1.2461-1.87891-1.75-2.81641-4.5039-8.36328-.57422-17.80078 8.53906-20.45703.79297-.23438.7422-.71094.8672-1.27734.96874-4.28907.6875-8.71094 1.51171-13.01563.6836-3.59375 1.78516-7.03516 3.76563-10.14453.35156-.5586.51953-1.02734.21875-1.71484-.38672-.88282-.23438-1.77344.39843-2.58204.89063-1.125.79297-2.98047-.1289-4.0703-1.88672-2.22657-3.12891-4.80079-4.03516-7.82813-.85547 1.30078-1.4414 2.52343-2.3164 3.55078-.89063 1.04687-1.79688 2.07422-2.89844 2.92578-.66407.51562-.98828.6211-1.17578-.39063-.26563-1.43359-.81641-2.80078-1.39063-4.14453-1.0039-2.32422-2.4961-4.21875-4.76563-5.4414-.6953-.37891-1.35156-.83203-2.03906-1.23438-3.16797-1.86328-5.67969-4.22656-6.21484-8.42969-.67188.92578-.88281 1.69922-1.14063 2.46094-.11328.33984-.13672.88281-.5664.88281-.46094 0-.39844-.55078-.46875-.875-1.03906-4.59765-.48047-8.96093 2.00781-13 2.6875-4.35156 6.45313-7.73047 10.125-11.1875 1.97656-1.85937 4.03125-3.625 6.15625-5.30859 3.20703-2.53125 6.78516-3.86719 10.91797-3.42969.47656.05469.89062-.03515 1.30469-.28515 5.0703-3.07422 9.33984-6.96875 12.55468-11.98828.25-.39454.40235-1.06641 1.03516-.89844.52734.13672.63281.73047.73828 1.22265.17578.85157.3086 1.71485.5 2.75782 1.49219-1.35157 3.04688-2.42579 4.8125-3.15625.73047-.3047 1.48047-.57422 2.26953-.6797.29688-.03905.60547-.0078.80078.2461.23438.3125-.03906.55469-.1875.78125-.98828 1.45703-1.83984 2.97266-2.25 4.71485-.14843.63671-.14843.98437.67188 1.05859 5.85547.52734 11.13672 2.70313 16.11719 5.70703.71484.42969 1.39453.58203 2.23437.51563 3.21875-.25782 6.26953.4453 8.8789 2.35547 5.94532 4.33203 11.48438 9.1328 16.32032 14.6953 3.96094 4.5547 5.19922 9.875 4.10156 15.76563-.0664.38281-.0039.98828-.47265 1.03906-.5.0547-.5-.5703-.66407-.92578-.34765-.72656-.51953-1.54687-1.08593-2.27343-.33985.9375-.61328 1.80468-.96875 2.6328-1.23438 2.91017-3.73438 4.53907-6.3047 6.01954-3.05858 1.74219-5.3789 4.0625-6.42968 7.48828-.3164 1.03516-.67969 2.07031-.85937 3.13281-.16016.92188-.4297.82422-.98828.33203-2.11329-1.85546-3.89454-3.97656-5.21485-6.74218-.30078.76953-.53516 1.32812-.73828 1.90234-.66406 1.86719-1.50781 3.6914-2.84375 5.11328-1.6914 1.79688-1.41016 3.50781-.39453 5.39063.33984.625.39453 1.33594.14453 1.94531-.34766.85547-.08984 1.47266.33203 2.19922 2.98047 5.04687 4.22656 10.58203 4.35156 16.3789.0547 2.39454.79297 4.69141.75 7.07422-.01562.75782.63282.64844 1.07032.78516 5.54687 1.76172 9.04687 5.375 9.9453 11.20313.5625 3.67578-.25 7.13671-2.21874 10.30468-.33203.53125-.69531 1.03516-1.17188 1.7461 3.9922.26172 6.67188 2.22656 7.9922 5.93359.91405 1.76563.6328 3.46484-.37892 5.0664-1.10156 1.75-2.8203 2.50391-4.80468 2.80079-3.48438.5039-6.9961.20312-10.4961.23828-1.3203.01562-2.4375.23437-3.34765 1.27734-.76953.875-1.85156 1.28516-2.98047 1.47266-3.66797.61328-7.34375 1.0625-11.07031.58203-.69922-.08984-1.41797-.01563-2.12891-.07031-2.10156-.15625-4.0039-.79297-5.42969-2.45313-.47656-.55078-1.05078-.79297-1.75781-.78515-.46094.0078-.92188.03125-1.375-.00782-1.4414-.1328-2.625.16797-3.67969 1.32422-1.10156 1.1914-2.67187 1.73438-4.27734 1.86328-4.36328.36329-8.73047.48438-13.08594-.23437-1.78125-.29297-3.38672-.88281-4.64062-2.22656-.5625-.60547-1.27344-.71875-2.05078-.71875-2.91797.0078-5.83985.02343-8.75782-.00782-1.6836-.01562-3.32031-.26172-4.83203-1.10156-1.08594-.60156-1.89062-1.46484-2.52734-2.52734-.71485-1.2539-.3164-2.5-.17188-3.7539zm0 0"/>
  </g>
  <path fill="#fdfdfd" d="M176.85938 250.57422c0-.04297.0078-.08203 0-.125-.04688-.46875.61718-1.14063.09765-1.3164-.65625-.21095-.84375.64843-1.07031 1.15624-.51563 1.13281-.5586 2.34766-.4336 3.5625.08594.76953-.22265 1.07422-.96484 1.0586-.54297-.00782-1.08594.02343-1.6211.02343-2.02343-.0078-2.11327-.10937-1.8789-2.16797.1211-1.08203.35547-2.13671.82422-3.1328.11328-.23438.41406-.55079.07422-.77735-.38672-.25781-.60547.14062-.79297.38281-.98828 1.22266-1.32813 2.67188-1.35156 4.20703-.01563.73047-.125 1.26563-1.03125 1.02735-.73438-.19922-1.92578.33984-1.84766-1.17188.0664-1.40234.35938-2.72656 1.1914-3.88672.15626-.21875.48048-.45312.1211-.72656-.29687-.22656-.54297-.00781-.76953.19531-1.23828 1.11328-1.66016 2.58985-1.75781 4.15235-.07031 1.08203-.47656.92187-1.13281.53125-1.44922-.86328-2.09766-2.38672-1.8125-4.32813.33984-2.30078 1.58593-4.19531 2.8164-6.07422.63281-.96875.82813-1.85937.61719-3.02344-1.50781-8.37109-2.98828-16.75-3.67578-25.23437-.46485-5.80078-.55078-11.58984 1.33594-17.21484.07812-.23438.18359-.46875.26562-.69532.7461-.3164.98047.33203 1.20703.75 1.63672 3.02735 4.16406 5.17188 6.9336 7.06641 4.24218 2.90625 8.9414 4.58203 14.04687 5.125 1.48047.16016 2.91406-.21875 4.3164-.58203 6.79298-1.74219 12.71485-4.91406 17.14454-10.52344.51953-.65625.94922-1.36719 1.41797-2.0625.24218-.35156.3828-.875.99609-.76953 1.40234 3.02734 2.03516 6.2461 2.26953 9.54297.41406 5.89844-.23437 11.73828-1.03906 17.5664-.8164 5.8672-1.8711 11.6875-2.94531 17.50782-.16407.89844-.02735 1.60937.45312 2.34765 1.07813 1.64063 2.08984 3.32422 2.67188 5.21094.70703 2.32422.17187 4.23438-1.42578 5.2461-.98047.61718-1.13282.55078-1.19141-.59766-.07031-1.42578-.55078-2.6875-1.54688-3.71875-.25-.25781-.59765-.6211-.9453-.33984-.3672.30078.07812.57812.25.82812.77733 1.15625 1.0039 2.46094 1.02733 3.8125.01954 1.48047-1.21484.875-1.9414 1.07422-.71484.19531-1.03125-.11328-1.01563-.91406.01172-1.30078-.12109-2.58985-.85547-3.72266-.27734-.4375-.51171-.94531-1.33593-.9961.3125 1.23829.83984 2.32423.94531 3.52344.21875 2.50782.22656 2.53125-2.26563 2.54688-2.08984.01562-2.10156.01562-2.11718-2.11328-.00781-1.0664-.19922-2.07813-.72656-3.00781-.21875-.38282-.38282-.85157-1.16016-.84375.52734 1.70703.9414 3.39062.625 5.1328-.10547.1875-.26563.39454-.47656.34766-1.75782-.38672-3.5-.80078-4.78125-2.22656-1.32032-1.48047-1.33594-3.14062-.75391-4.89844.4961-1.91797 1.65234-3.42968 3-4.8164.41797-.42578.77734-.82422.76953-1.4961-.08984-7.33203.10547-14.66797-.23828-22-.03906-.72265-.17578-1.4414-.40234-2.17187-1.37891 3.1914-1.51563 6.57422-1.61328 9.96484-.5586 2.76953-2.375 4.67969-4.4375 6.3789-1.07032.88282-2.17188.82032-3.29688-.12108-2.13281-1.78907-3.77344-3.91797-4.26953-6.76563-.11328-3.1836-.3086-6.36328-1.53125-9.39063-.49219 1.51563-.6211 3.07422-.625 4.6211-.04688 6.42187-.03125 12.84766-.07813 19.27344-.0078.8125.3711 1.3203.89844 1.82422 1.98438 1.90234 3.10938 4.21484 3.34375 6.95312-.58203 2.20703-3.42578 4.57813-5.6836 4.73438-.57421.03906-1.0039-.08204-.94921-.78516.08203-.96484-.1211-1.96094.1289-2.9375zm0 0M211.69922 175.17188c-1.54688 5.49609-4.96484 9.4453-10.01953 12.01171-1.8086.91407-3.70313 1.6172-5.80078 2.27344.26562-.64844.46093-1.13281.64843-1.60937-2.51172 1.92578-4.4414 4.73437-8.10156 4.89062.29297-.82812 1.11719-1.29687.98828-2.26953-.60547-.03906-.95312.4375-1.38281.69531-3.15234 1.8789-4.75781 1.67578-7.27344-.99219-.88281-.93359-1.71875-1.90234-2.66797-2.94921-.20703.83593.38282 1.35937.375 2-8.78906-2.10547-14.5703-7.72266-15.91015-15.81641-.28125-2.6289 1.32812-4.23438 3.13672-5.6914.875-.70313 1.90234-1.23048 2.95703-1.57813 2.72656-.89844 4.60156-2.71875 5.9375-5.17969.16015-.29297.36328-.5586.53906-.83984.8789-.80469 1.64453-1.70313 2.04297-2.85938.46875-2.44531.9961-4.875.89062-7.40625-.08203-1.89453-.40234-3.73047-1.04297-5.4961-.8125-2.27343-2.33593-2.96483-4.64062-2.16796-2.78125.97656-4.90234 2.78125-6.40234 5.29297-.78516 1.3164-1.6836 2.58203-2.08985 4.10156-.09375.34766-.26562.6914-.6289.875-.48828-.21094-.10547-.71875-.38282-.98047-.21093-2.4336-.33984-4.8711-.04687-7.30078-.69531-1.53516.15234-2.86328.72656-4.11719.85156-1.8789 2.07422-3.5703 3.5586-5.04297.35546-.35156.76953-.42968 1.1875-.57812 3.95312-2.22656 7.59765-4.82422 10.1914-8.64453.46875-.6875.84375-1.4336 1.27344-2.14453.14453-.23438.23437-.59766.6289-.46094.27735.09766.28516.38672.30079.63281.04687.79297.05859 1.58594.11328 2.3711.03125.4375.19531.83984.64062.98828.42969.15234.69531-.1875.94922-.45313 1.3086-1.32812 2.45313-2.82031 4.27344-3.8164-.20313 1.13671-.44531 2.1328-.55078 3.14453-.10547 1.01172.35156 1.73828 1.4414 1.8125 6.75.48437 12.72657 3.10547 18.38672 6.61328.07422.03125.15625.03906.23828.07031 2.73438 1.0625 6.04688 6.80078 5.62891 9.69922-.09766.6875-.13281 1.39844.05469 2.08203.08203 1.8125.05078 3.61719-.23438 5.41406-.3789.79297-.625.39453-.82422-.10547-.58593-1.52343-1.36328-2.95703-2.32812-4.2578-1.65234-2.23438-3.60156-4.16016-6.33203-5.0586-2.70703-.89844-4.2461-.15625-5.09375 2.5586-1.03125 3.32421-1.23438 6.69921-.28516 10.08593.07422.28125.15234.5586.17969.85547-.03516 1.95312 1.02734 3.30469 2.41406 4.5.33203.52734.55078 1.11719.83203 1.66797 1.13281 2.21875 3.0039 3.4961 5.26563 4.29297 2.8125 1 4.91015 2.71875 5.96875 5.59765.40625 1.08594.5039 2.16406.26953 3.28906zm0 0"/>
  <path fill="#f0b97c" d="M211.86719 146.33203c-.33203-.39844-.23438-.89062-.20313-1.32031.20313-3.32031-1.35937-5.9336-3.375-8.33984-.6836-.82422-1.45312-1.57813-2.34375-2.19922 3.65625-.57422 7.07422-.01563 10.03516 2.33984 6.0039 4.77344 12.03906 9.51563 16.61328 15.79688 1.28125 1.76562 2.16406 3.70312 2.22266 5.96093-.66797-.89062-1.08594-1.9375-1.86328-2.73828-.26172-.26562-.4961-.57422-.79688-.79297-.27344-.19531-.55078-.64844-.95313-.34765-.40625.30078-.08984.67187.07813.99609.9336 1.82813 1.28906 3.77344 1.22266 5.8125-.02344.58984-.07813 1.16406-.33203 1.70703-.33204.89063-.94532 1.52344-1.73047 2.05469-1.6875 1.14453-3.53907 2.02344-5.29688 3.04687-2.39062 1.39844-4.3164 3.2422-5.52734 5.76172-.1836.3711-.29688.875-.77735.89063-.55859.01562-.6953-.53516-.85547-.94531-1.09375-2.88282-1.98437-5.82813-2.85156-8.77735-.35547-1.19922-.69922-2.40234-1.19922-3.55078-.76953-1.77344-.79297-3.61328-.54297-5.49219.12891-3.25.30079-6.5-.55859-9.69531-.19531-.73828-.46094-1.45703-.96484-2.1211v1.95313zm0 0"/>
  <path fill="#f0b97d" d="M168.29688 134.4375c-2.94532 2.61719-5.15625 5.65234-5.47266 9.7461-.61719-.0625-.59375.48827-.72266.82812-.78515 2.04687-1.13281 4.1914-1.13281 6.36328.00781 2.4414-.07422 4.89453.40625 7.3086.28906 1.98046-.22656 3.8828-.51953 5.80468-.63281 4.0625-1.92969 7.9375-3.53125 11.70313-.15234.36328-.23438.89062-.77734.83984-.46094-.04688-.48047-.53125-.57422-.8711-.89453-3.3203-3.08594-5.65234-5.75391-7.6328-1.26953-.94141-2.5664-1.84766-3.66797-3.01173-2.72266-2.85937-3.3125-6.29296-2.85156-10.0703.17187-1.41016.375-2.78516 1.04687-4.0625-.61718 1.16405-.97265 2.49218-2.15625 3.27734-1.07812.9375-1.8203 2.15234-2.73047 3.55468-.0703-.90234.16407-1.49218.39844-2.07422 1.20703-3.04296 3.21485-5.54296 5.42578-7.89062 3.60547-3.82422 7.50782-7.33594 11.5586-10.69531 3.23047-2.69531 6.90234-3.73047 11.05469-3.11719zm0 0"/>
  <path fill="#c0bfbf" d="M155.79297 219.75c1.2539-.98047 2.80078-1.19922 4.2539-1.66016.56641-.17187.61329.19141.64844.59766.64453 7.39844 2.08594 14.6836 3.26953 22.00781.08985.54297-.0078.96485-.29297 1.40235-1.73046 2.64062-3.26953 5.35156-3.10156 8.67578.02735.53515-.28906.60937-.71094.60156-2.625-.01563-5.25-.02734-7.875-.01563-.67187.00782-.85546-.28515-.86328-.90625-.0078-1.57421.37891-3.04687.98828-4.48437.12891-.3086.5-.7539.04688-.98047-.3789-.1875-.65625.28125-.85938.57422-.92187 1.35156-1.26953 2.875-1.35156 4.49219-.02344.3789.3164 1.14844-.58203 1.0586-.71484-.07813-1.40234-.20704-1.35547-1.23829.0586-1.1875.21875-2.32031.76953-3.38281.21875-.42188.39844-.85938.48047-1.34375-2.0586.95703-2.2539 2.88281-2.45703 4.90625-.89844-.46094-1.1875-1.1914-1.27734-2.04688-.30078-2.83594 1.51562-5.38281 4.39844-5.9336 2.47656-.47655 4.97265-.66405 7.23046.89845.22657.15234.46094.37109 1.0547.24218-2.05079-2.17578-4.45704-3.85156-5.9375-6.34765-.38282-2.55469-.45313-5.1289-.1211-7.67969.39844-3.08594 1.39453-5.98438 3.21484-8.55078.1875-.26563.39844-.53906.42969-.88672zm0 0M210.14844 196.00781c-.99219.96875-1.51953 2.26563-2.39453 3.32422-5.15235 6.25-11.94922 9.53906-19.76563 10.86328-2.83984.48047-5.63672-.44531-8.3086-1.32812-4.85155-1.60156-9.08202-4.2539-12.59765-8.01172-.8086-.85938-1.375-1.86328-2-2.83984-.25781-.39844-.3789-.95704-.9961-1.01954.32423-1.52343 1.19141-2.80078 1.8711-4.32422 4.0039 4.77735 9.24219 7.23829 14.88672 9.00782.60156.1875.8125.5039.91016 1.13281.46875 2.86719 2.15234 4.89063 4.59765 6.35547.66797.39844 1.29688.23437 1.88281-.11328 2.41797-1.39844 3.98438-3.4336 4.28907-6.24219.08984-.85547.40625-1.08203 1.11328-1.29297 5.20703-1.57031 10.0586-3.79687 13.95312-7.7461.29297-.29296.57813-.59374.8672-.89062.02343-.02344.07421-.03125.1875-.07422.66405.97266 1.19921 2.03125 1.5039 3.19922zm0 0"/>
  <path fill="#eeb97f" d="M196.66406 155.89063c-1.17578-3.8125-1.07031-7.60938.17188-11.375.86328-2.61329 2.51562-3.45704 5.10156-2.6211 3.79688 1.22266 6.21094 4 8.08984 7.33984.44532.79297.92578 1.57813 1.11328 2.48829.1211.58984.32813-.08985.48438.03125-.1875 2.4375-.32422 4.88672-.5664 7.32422-.375 3.76562-.08204 7.48828.91406 11.12109.47656 1.73437.1875 3.34375-.28516 4.98047-.1914-4.45313-2.42188-7.35156-6.66406-8.71875-2.9961-.96485-4.85156-3.05078-5.83203-5.98828.34765-.31641.71093-.08985 1.05468-.01953 2.52735.53515 4.80078-.97657 5.26953-3.51172.02735-.16797.02735-.33203.06641-.4922.20313-.97265.53516-1.09374 1.34375-.49608.23438.17187.39063.42968.73047.58593-.67969-1.90234-1.75781-3.39453-3.49219-4.3711-2.91406-1.62108-6.08984-.27733-6.97265 2.9375-.06641.3086.04687.80079-.52735.78517zm0 0"/>
  <path fill="#efb87f" d="M162.8711 151.48438c.1289.24609.25.48828.39843.77734 1.0586-2.99219 2.48438-5.73828 4.80469-7.89063 1.4336-1.32812 3.08203-2.37109 5.0586-2.76953 1.76562-.36328 3.1289.2539 3.875 1.88672 1.39062 3.04297 1.59374 6.26563 1.2539 9.52734-.15234 1.46485-.5586 2.90625-.85156 4.35547-.47657-.37109-.3711-.90625-.34766-1.3828.0664-1.84767-.875-3.0625-2.39844-3.91017-1.57031-.86718-3.17578-.7539-4.61719.19141-1.54687 1.01563-2.67968 2.46094-3.35156 4.30078.42188-.01562.61719-.3086.88281-.46094.6875-.3828.94141-.12109 1.09375.57422.71875 3.25391 2.6172 4.41797 5.81641 3.59375.28125-.07422.5586-.1875.83984-.0078-1.4414 3.03515-3.5703 5.26171-6.875 6.30468-1.58593.4961-2.98828 1.4336-4.08203 2.7461-.99609 1.1875-1.7578 2.47655-1.80859 4.08593-.29688-.6211-.41797-1.26172-.19922-1.92578 1.71484-5.10156 1.48047-10.30469.83984-15.54297-.18359-1.47266-.42968-2.95313-.33203-4.45313zm0 0"/>
  <path fill="#fdfdfd" d="M211.38281 237.03906c.96094-6.03906 2.07422-12.0625 2.6875-18.15625.04297-.47656-.00781-.83594.76172-.66406 10.6289 2.39453 11.64063 13.07422 7.35547 18.86719-.52734.625-1.2461.39844-1.85547.30078-2.63281-.40625-5.1836-.13672-7.70312.6875-1.21485.38281-1.375.21094-1.2461-1.03516zm0 0"/>
  <path fill="#c1bfbf" d="M181.3711 226.29688c.91796 2.33203 2.14062 4.46093 4.03515 6.16796 1.47266 1.32813 2.52734 1.3125 4-.03125 1.74219-1.59375 3.01563-3.49609 3.96875-5.6289.00781 4.46094.00781 8.91406.03516 13.375 0 .5664-.2461.92969-.58594 1.3125-2.33984 2.61328-3.83984 5.55078-3.48828 9.17578.05469.57812-.14063.73047-.66797.71484-.96094-.02344-2.0625.30078-2.83984-.0664-.92579-.4375-.13282-1.59375-.25391-2.4375-.40234-2.79688-1.61719-5.15625-3.48047-7.20313-.55078-.60547-.76953-1.20703-.76172-2 .03125-4.46484.03125-8.91797.03906-13.3789zm0 0M207.0625 186.2539c.3164.98829-.02344 1.625-.5 2.25-2.65625 3.53516-6.39063 5.4961-10.34375 7.17188-2.34766.9961-4.89844 1.32813-7.24219 2.29688-.4375.17968-.47656-.12891-.65625-.33203-.4375-.5-1.19922-.72657-1.57031-.35547-.95703.94922-1.75781.21093-2.64063.02343-3.69921-.78515-7.19921-2.0703-10.46484-3.97265-2.03125-1.1836-3.90234-2.5664-5.25781-4.52735-.44531-.64453-.90625-1.30859-.75-2.30468.5664.37109 1.07422.70312 1.57031 1.03515 2.83594 1.90235 5.96875 3.13281 9.24219 4.01563.73437.19531 1.35156.53515 1.94922 1.03515 1.5 1.25391 3.1836 2.11328 5.25 1.85547.32422-.03515.67969-.01562.98828.08203 2.98828.91407 5.34766-.4375 7.6289-2.08984.30079-.21875.52735-.5039.91797-.60156 4.27344-1.09766 8.30078-2.71875 11.87891-5.58203zm0 0"/>
  <path fill="#c0bebe" d="M211.38281 237.03906c.23438.27344-.3086 1.19531.71875.8086 3.09375-1.15625 6.26953-1.23828 9.49219-.6797.1875.03126.39844-.05468.59375-.08202-1.0625 1.82422-2.70703 3.10156-4.22266 4.5-.6289.57031-1.33593 1.07031-1.72265 1.97656 2.39844-1.54688 4.89062-2.45313 7.71875-1.51563-.02344.02735-.05078.08985-.07422.08985-1.76563.04297-1.91797 1.3125-2.1289 2.64844-.2422 1.51172-.80079 2.96093-1.10938 4.46093-.15625.76172-.13672 1.4336.26562 2.09375-2.08203.01172-4.16406.01953-6.24219.04297-.49609.00781-.76171-.09765-.72265-.69531.17187-2.89844-1.01172-5.38281-2.51953-7.71484-.69531-1.0625-.95313-2.05078-.59766-3.26953.24219-.8672.36328-1.77344.55078-2.66407zm0 0"/>
  <path fill="#9c5d36" d="M142.58203 154.66016c.83594-1.44141 1.67578-2.89063 2.5039-4.33203-.30859 1.78906-.95702 3.43359-1.1289 5.23828-.44531 4.59765.64844 8.5078 4.58594 11.30078 1.11719.79297 2.20312 1.64844 3.26562 2.50781 2.39844 1.94922 4.00782 4.41016 4.69532 7.71484 2.84375-6 4.1875-12.11718 4.86328-18.41406.46875 2.5664.35547 5.14063-.0586 7.67969-.67187 4.07031-1.87109 7.94922-4.42968 11.28516-.27735.36328-.48047.77734-.95703.98046-.47657-.45312-.55079-1.10937-.79297-1.66015-1.46485-3.35938-4.02735-5.64453-7.12891-7.44922-1.8711-1.08984-3.77344-2.1836-4.85938-4.1836-1.76562-3.24609-1.23828-6.5.12891-9.73046.1289-.30078.40625-.62891.21875-.9297-.24219-.39843-.59766.10548-.90625-.0078zm0 0"/>
  <path fill="#9a5d34" d="M213.39063 156.19922c-.42188 2.74219.86718 5.09766 1.64453 7.58203 1.01172 3.21484 1.90234 6.46875 3.0625 9.63281.18359.4961.28906 1.03516.79297 1.52344.97265-2.63281 2.64843-4.67188 4.91406-6.16016 1.66406-1.09375 3.45312-1.99218 5.17969-2.99609 1.1875-.6875 2.33203-1.4414 3.17187-2.5586-.42188 2.16016-1.89453 3.53907-3.57031 4.7461-.97266.70313-2.00781 1.33984-3.03906 1.95703-3.1172 1.86328-5.34375 4.45313-6.5586 7.89844-.08984.26172-.07422.66406-.39062.73047-.39453.08203-.51953-.33985-.70313-.58985-2.84375-3.90234-4.16406-8.36328-4.78125-13.09765-.33203-2.50781.01953-4.98047.02734-7.47266.01563-.40234-.0664-.84766.25-1.19531zm0 0"/>
  <path fill="#f9f9f9" d="M220.90625 251.33203c-.7461-.15234-.92969-.6211-.7539-1.3164.375-1.53125.73046-3.0625 1.10156-4.59766.09765-.39844.17968-.8125.30859-1.20703.21875-.67188-.28906-1.61328.33203-1.99219.51953-.32422 1.36328-.13672 2.0586-.17188.54296.48829 1.26953.14844 1.88671.42188 2.00782.89844 3.40235 3.03516 3.37891 5.26953-.00781.9961-.42188 1.72656-1.30469 2.36328-.23437-2.0039-.27734-4.01172-2.39062-5.07422-.27344.60938.16406.94141.33984 1.3125.51953 1.1172.77734 2.27344.76172 3.50391-.00781.6875-.3086 1.07813-.98828 1.22266-.63281.13672-1.01172.09765-.98828-.73047.04297-1.38281-.16016-2.75781-.8164-3.9961-.29298-.55859-.52735-1.24609-1.3047-1.38672-.34765.45313.02344.82032.16016 1.16016.51172 1.2539.66406 2.5586.76953 3.89453.08203 1.0586-.27344 1.48047-1.32031 1.36719-.39453-.03516-.8164-.02734-1.23047-.04297zm0 0"/>
  <path fill="#dda979" d="M191.17188 202.69922c-.30079 2.02344-1.53907 3.66797-3.35938 4.92969-.54297.375-1.03906.125-1.49219-.20703-1.57031-1.13672-2.69531-2.60157-3.13281-4.51954-.40625-1.79687.61328-2.86328 2.45313-2.62109.16796.02344.4375.08984.48437.02344 1.16797-1.83594 2.29297.36328 3.55078.08203.95313-.21094 1.46484 1.01172 1.4961 2.3125zm0 0"/>
  <path fill="#b37752" d="M184.04297 198.91406c-1.27734 1.19531-2.55078 1.53516-4.1875.88281-3.77344-1.48437-7.4414-3.1328-10.52734-5.83203-1.25782-1.10547-2.35547-2.35156-3.13672-3.84375-.19922-.37109-.38672-.75-.20703-1.1875.13671-.32422.36328-.53515.6289-.14843 4.13281 6.14453 10.6289 8.1914 17.27734 9.99609.03125.01953.05079.0586.15235.13281zm0 0"/>
  <path fill="#fafaf9" d="M155.79297 219.75c.39062.10547.57422.17578.21094.63672-1.96875 2.5586-3.02344 5.4961-3.46875 8.67187-.32032 2.27344-.3125 4.54688-.02344 6.82032.04297.375.17969.73828-.23438.99609-3.74218-5.98828-2.8203-12.4336 2.35547-16.40625.35938-.27734.77735-.48438 1.16016-.71875zm0 0"/>
  <path fill="#bb7b57" d="M190.63672 198.92188c3.20703-.65625 6.20703-1.73438 9.0664-3.17579 3.19141-1.60156 6.16407-3.48828 8.16407-6.57812.15234-.22656.30078-.59375.65625-.35938.26562.1797.21094.51953.1211.8047-.41407 1.26952-1.27345 2.25-2.20313 3.14062-3.27344 3.15625-7.21094 5.1875-11.4375 6.73437-.27344.09766-.5586.17578-.82422.29688-1.30469.60156-2.53516.72265-3.54297-.86328zm0 0"/>
  <path fill="#c6c2c2" d="M176.85938 250.57422c0 .8711.02343 1.73047-.00782 2.59766-.03125.79296.25 1.01953 1.03125.79296 2.4375-.71093 4.35547-2.04687 5.48828-4.37109.01172 3.2461-2.92968 5.73047-6.10547 5.17969-.39062-.0664-.6328-.23438-.64843-.6211-.03906-1.20703-.27344-2.42187.24219-3.57812zm0 0"/>
  <path fill="#bdb9b9" d="M191.86328 247.3125c-.32812 1.77734-.35937 3.47656 1.125 4.82422 1.39063 1.2539 3.01172 1.91016 4.88281 1.95703.08203.38672-.11328.55078-.46093.55078-1.89453-.01562-3.80078-.13672-5.03125-1.83594-1.21485-1.6875-1.41016-3.5703-.51563-5.49609zm0 0"/>
  <path fill="#0b0205" d="M188.11719 161.6836c1.69531.01171 3.83984.45312 5.78515 1.62109 1.52344.91406 1.90235 1.9414 1.27344 3.60156-1.1289 2.9961-3.27344 5.10156-6.0664 6.53906-.94141.48047-.96485.89844-.51954 1.69531 1.8047 3.19532 4.26953 5.48438 8.1211 5.64844 3.28906.13672 5.64062-1.91797 6.14844-5.17187.10546-.66406.22656-1.26563 1.09375-1.19922.96484.07422.9414.79297.91796 1.47266-.1328 3.48828-3 6.37109-6.8125 6.875-.95703.1289-1.92968.19921-2.85937-.01954-.94922-.22656-1.52344-.07812-1.90625.9336-.27344.71094-.83203 1.34375-1.35938 1.92578-2.85937 3.14062-7.2578 2.92187-9.83984-.46094-.32422-.42969-.67969-.875-.85938-1.375-.34765-.97266-.80859-1.23437-1.92578-1.04687-3.26562.54297-6.11718-.36328-8.22265-3.0586-.92578-1.1836-1.35156-2.58203-1.35938-4.08203 0-.63672.1914-1.17969.98438-1.17969.6836-.0078.89453.40625 1 1.02735.80078 4.55078 4.73437 6.6289 8.97265 4.75 2.41407-1.07422 4.1875-2.83985 5.44141-5.14453.35938-.66407.3086-1.03125-.46875-1.4336-2.58984-1.32812-4.625-3.26172-5.83984-5.95703-1.05078-2.33203-.58985-3.53906 1.70312-4.64062 1.89453-.9375 3.92578-1.32032 6.59766-1.32032zm0 0"/>
  <path fill="#0d0206" d="M175.32031 160.26953c-2.71094 1.61719-6.91797.3711-7.0039-4.29687-.75391.30468-1.2422.91406-1.80078 1.39843-.44532-.1953-.26563-.49218-.16797-.73828.76953-1.97265 1.84765-3.72265 3.75-4.77344 1.73437-.95703 3.52343-.94921 5.20703.17579 1.6289 1.08593 2.375 2.625 2.15625 4.59765-.02735.2461-.02735.4961-.04297.73828-.36328 1.20703-1.11719 2.13672-2.09766 2.89844zm0 0"/>
  <path fill="#0c0205" d="M196.66406 155.89063c.82813-3.4336 2.85156-5.0586 5.8164-4.67188 2.67188.34766 5.39454 3.29297 5.63673 6.25781-.73828-.67187-1.38281-1.26172-2.08985-1.90234-.82422 4.61328-3.08593 6.1836-6.8125 4.89062-1.70703-1.04687-2.48437-2.60937-2.55078-4.57422zm0 0"/>
  <path fill="#361b0e" d="M206.98438 148.83984c-1.65235-1.2539-3.0547-2.29297-4.8125-2.61718-.20313-.03907-.4375-.13672-.32422-.40235.1289-.29297.4375-.34765.73047-.39062 1.71484-.28906 3.8125 1.16797 4.40625 3.41015zm0 0"/>
  <path fill="#33170f" d="M167.26953 148.6875c.17188-1.88672 2.48828-3.48438 4.35938-3.23047.25.03906.51953.07031.57422.36328.03125.17969-.14454.28906-.31641.32422-1.6914.39453-3.07813 1.38281-4.61719 2.54297zm0 0"/>
  <path fill="#f7f3e9" d="M186.67578 201.98828c.86719.08203 1.73438.17969 2.59375.25.76953.0664.69531.4375.32422.89063-.46875.57422-.92188 1.1914-1.47266 1.68359-.42187.375-.66015 1.32031-1.5664.70703-.96094-.64844-1.94922-2.39062-1.65235-3.02734.39063-.83594 1.17578-.35156 1.77344-.5039zm0 0"/>
  <path fill="#fcacae" d="M186.58984 178.01172c.09766 1.57812-.01172 2.94531.25 4.28125.0625.3164.02344.80469.41407.8125.55078.00781.36328-.5586.38672-.86719.12109-1.32031.17968-2.64844.26953-3.99219.5-.04687.61328.39063.85547.63282.69921.71093 1.37109 1.44922 2.20312 2.02343 1.6875 1.16407 1.67969 1.16407.4961 2.8672-1.21485 1.74608-2.83594 2.73437-4.98829 2.44921-2.16406-.28906-3.3789-1.78906-4.2539-3.65625-.1797-.38281-.2422-.70313.20312-.94922 1.57031-.8711 2.85156-2.09375 4.16406-3.60156zm0 0"/>
  <path fill="#f1f0f0" d="M193.29688 165.66016c-4.01954-.34766-7.92188-.4375-11.875.10547 2.16796-2.5 9.42578-2.59766 11.875-.10547zm0 0"/>
  <path fill="#dad8d8" d="M174.85938 154.4336c-.04688.5664-.40625.79296-.91407.80859-.4961.01562-.76172-.28516-.80469-.7539-.04687-.46876.125-.84767.64844-.8711.55078-.01953.94922.24219 1.07031.8164zm0 0"/>
  <path fill="#f2f1f2" d="M204.20703 155.16797c-.13281.84375-.57812 1.4414-1.45312 1.41016-.8672-.03125-1.35157-.64844-1.35157-1.4961 0-.77734.52735-1.23047 1.28125-1.23828.84766 0 1.40625.4336 1.52344 1.32422zm0 0"/>
</svg>
