<svg xmlns="http://www.w3.org/2000/svg" width="500" viewBox="0 0 375 374.99999" height="500" version="1.0">
  <path fill="#cea876" d="M304.33594 214.45313c-.2539 1.0664-.59766 2.11718-1.10547 3.08984-.8125 1.3789-1.79688 2.67578-1.97266 4.3164-.65625 4.46485 3.96875 8.4336 8.30078 7.17188 3.2422-.89453 5.28516-3.84766 8.64063-4.60156 3.14844-.61328 7.41015-1.00781 8.16015-4.91406.9922-4.09375-2.71484-6.01954-5.1953-7.98438-2.6836-2.14453-3.2422-5.69922-5.76563-7.91406-3.07031-2.80078-8.60156-1.71485-10.28906 2.10547-1.40235 2.73828.18359 5.8828-.77344 8.73047zm0 0M324.41797 207.78906c-3.20313-.80078-4.64453-5.41797-2.84766-8.08203 1.79688-2.33203 5.36719-2.33984 8.0625-2.03906 2.47656.23437 5.13281 2.10156 4.72266 4.91406-1.125 3.55078-6.625 6.01563-9.9375 5.20703zm0 0M319.22656 229.09766c-3.16797-.8711-6.6875 2.34765-6.4336 5.59375.3711 3.4453 6.45704 6.96484 9.72267 6.22656 2.0078-.39453 3.51171-2.57813 2.77343-4.63672-.79297-2.95313-3.03515-6.29297-6.0625-7.1836zm0 0M335.02344 208.46875c3.76172-.59375 8.46875 1.13672 9.9336 5.01953 2.04687 6.23828-6.98829 8.65234-11.12892 6.19531-4.30859-2.71484-4.59765-10.17968 1.19532-11.21484zm0 0M328.92188 233.98828c3.09765 2.23828 8.0664 2.8086 11.14062.03125 4.57422-4.67578-2.28516-10.86328-7.14453-10.57422-5.08985.46094-8.67578 7.02344-3.9961 10.54297zm0 0M288.85938 274.01172c-2.8047.75-6.16016.80469-8.41407-1.42578-3.8125-3.51953-3.07812-9.40235 1.21485-11.95313 2.8203-1.76562 4.10156-4.76172 5.10156-7.8125 1.20703-2.89453 4.54687-4.57031 7.76953-4.07031 3.1914.4414 5.78516 3.13281 6.26563 6.27734.48437 2.22266.17578 4.70703 1.28515 6.70313.57813 1.04297 1.2539 2.0586 1.79297 3.17969 2.23047 3.76562-.10156 9.08203-4.58984 9.45703-2.04297.21094-3.94532-.40235-5.82813-.76172-1.48828-.26563-3.01562.0664-4.59765.40625zm-7.98829-9.39063c-1.90625 2.83594.28516 7.2422 3.71094 7.53907 3.09375.29687 6.16016-1.50782 9.34375-.875 2.2539.36718 4.66016 1.28515 6.60938.28906 2.64843-1.7539 2.08203-4.38281.27343-7.32031-1.3789-2.03125-1.9414-4.58204-2.02734-6.79297-.125-1.33985-.21094-2.5625-.75781-3.71094-1.03906-2.27734-3.91797-3.4961-6.27735-2.60156-4.59375 1.48828-2.23046 6.95312-8.6953 11.30078-1.06642.73047-1.72267 1.40234-2.1797 2.17187zm0 0"/>
  <path fill="#cea876" d="M302.53516 256.17969c.5703-6.17969 5.99218-6.8086 10.78906-4.26953 4.58203 1.97265 6.1875 7.79687 1.11328 10.0664-4.6836 2.03125-12.4375.72656-11.90234-5.79687zm12.46093.5c-1.11328-2.38672-6.14843-4.67188-8.54296-3.46485-1.87891.98828-2.23047 4.88672-.44922 6.10157 2.11328 1.54296 5.5078 1.26171 7.75.33984 1.29296-.41016 1.76562-1.83984 1.24218-2.97656zm0 0M296.73047 285.39063c-.26953 2.78125-2.89063 4.64453-5.59375 4.17968-2.63672-.41797-5-3.23828-6.26172-5.63672-2.1914-3.78906-.46484-7.43359 3.32813-8.73046 6.32812-2.10547 9.25 5.15234 8.52734 10.1875zm-10.41016-5.66016c-.64062 2.51172 2.91797 6.9961 5.41406 7.4414 4.53516.66016 2.57813-7.78906.41016-9.32812-1.64844-1.48828-5.14062-.23047-5.82422 1.88672zm0 0"/>
  <path fill="#cea876" d="M314.58594 263.63281c5.58984 1.24219 10.55078 8.42969 5.57422 13.33985-3.33985 2.84765-9.4922 1.39843-12.1211-2.02735-3.3711-4.75781-.04687-12.84765 6.54688-11.3125zm4.57422 6.8125c-1.21094-2.58984-5.21094-5.73828-8.32422-3.96094-2.0039 1.34766-2.23438 4.89454-.85547 6.75782.9961 1.23047 2.64062 2.07422 4.23437 2.46094 4.51563 1.01562 6.625-1.6836 4.94532-5.25782zm0 0"/>
  <path fill="#cea876" d="M312.79297 286.82813c-1.26172 3.16015-4.65625 3.87109-7.21875 3.49218-2.51953-.35156-5.0586-2.03906-6.61719-4.16406-4.39453-5.91797 2.36719-12.26172 8.41016-10.32031 4.02344 1.51562 7.2461 6.9961 5.42578 10.99219zm-12.67969-5.83204c-.83203 3.48047 3.3789 6.37891 6.19531 6.79688 4.08985.64453 5.71875-2.46094 3.57422-6.26563-.83203-1.42187-2.10547-2.73437-3.57812-3.33593-2.08594-.79297-5.49219.39062-6.1914 2.80468zm0 0M251.01172 289.1914c-2.21094 1.66016-5.20313 1.4336-7.42188 3.0625-3.60156 2.52344-3.15625 8.83594.8086 10.94923 2.90625 1.59375 6.51562 1.05078 9.36328 2.84765 2.72266 1.74219 5.79297 4.53906 9.2461 2.29297 3.5039-2.23047 2.39843-6.02344 1.97265-9.32031-.41797-3.42578 1.7539-6.30469 1.52344-9.67578-.23438-4.57813-5.53907-7.54297-9.50391-5.51563-1.1211.57422-1.95313 1.45703-2.70703 2.45313-.92969 1.14843-2.05078 2.10937-3.28125 2.90625zm0 0M269.92969 298.67578c-1.65625-2.8086.48437-7.13281 3.70703-7.71875 3.44531-.58594 8.41406 4.3711 8.53906 7.74219-.03515 6.61328-10.08984 3.76172-12.2461-.02344zm0 0M251.17188 310.04688c-1.59375-2.84375-6.45313-3-8.5-.57813-1.73438 2.3789-.79297 5.83594.1953 8.36719.8672 2.32031 3.3125 4.39062 5.89845 3.1914 3.11718-1.8125 4.0703-8.01171 2.40625-10.98046zm0 0M276.94922 306.67188c2.21484 1.61718 3.89453 4.3789 4.05469 7.16796.11328 2.125-.63672 4.94532-3.23829 5.84766-3.95312 1.34375-8.62109-2.50781-9.60546-5.95703-1.14454-4.9414 4.01171-10.48438 8.78906-7.0586zm0 0M254.58594 320.3789c.6211 3.8125 3.70312 7.63282 7.85937 7.89454 3.66797.32031 5.65235-3.98438 4.99219-7.21094-.3086-2.13281-1.32422-4.15625-2.5625-5.29688-3.78516-3.3164-11.1914-1.14843-10.28906 4.61329zm0 0M197.95703 320.35938c-2.51953-1.4375-4.92187-3.8086-4.9375-6.96485-.17578-5.14062 4.375-8.79687 9.32031-7.58203 3.51172.7461 6.02344-.46484 9.12891-1.88281 2.89063-1.30469 6.53125.07422 8.36328 2.60156 1.40625 1.90234 1.85547 4.57813 1.05078 6.8086-1.26953 3.46874-4.78125 5.35156-5.25 9.10156-.34765 1.39062-.76953 2.875-1.61328 4.15234-1.60156 2.76563-6.32812 3.7461-8.9414 1.39453-3.09766-2.71094-3.03516-5.46875-7.1211-7.6289zm1.0039-12.30079c-3.34374.67188-4.92577 5.33594-2.71484 7.97266 1.9922 2.3789 5.41407 3.30469 7.22657 5.99219 1.33203 1.85937 2.3828 4.17578 4.46484 4.86719 3.11328.72265 4.57422-1.65625 5.36719-4.9922.47265-2.39062 1.8789-4.54687 3.3711-6.21484.85937-1.03906 1.65233-2.01562 2.08593-3.16406 1.30078-3.1875-1.64844-7.14453-5.02734-6.79297-2.23438.28516-4.75 2.20703-7.1836 2.44531-2.3789.5547-5.3711-.58203-7.58984-.11328zm0 0M220.23828 317.4375c3.10547-2.7461 7.13672-2.13672 9.22656 1.53906 1.4375 2.32031 2.59375 5.80078 1.60157 8.3086-2.30078 4.91796-7.37891 3.21093-10.46485-.06641-2.77344-2.71875-3.76172-7.01172-.36328-9.78125zm8.45313 9.125c.92578-2.41016-1.08594-7.70313-3.59375-8.47266-2.1211-.60156-5.3086 2.13282-4.5547 4.3711.40626 2.60547 6.40235 8.21484 8.14845 4.10156zm0 0"/>
  <path fill="#cea876" d="M195.47656 333.98438c-2.10547 1.72265-5.35156 1.23828-6.91015-1.01172-1.57032-2.16016-1.2461-5.82422-.44141-8.41407 1.15234-4.26171 4.91797-5.5703 8.53125-3.8164 5.97266 2.97265 2.8711 10.1875-1.17969 13.24219zm-3.35547-11.37891c-2.23047 1.32031-2.88672 7.01172-1.43359 9.08984 2.73047 3.65625 7.32422-3.63672 6.88281-6.30078-.05469-2.21484-3.63672-3.8086-5.44922-2.78906zm0 0M223.49219 331.21875c1.52734 2.5 1.96875 5.9414.99219 8.60547-.94922 2.6211-3.32032 5.11719-6.4922 4.7461-4.3828-.3125-7.69921-5.6836-7.1328-9.96094.90234-5.72657 9.12109-9.14454 12.6328-3.39063zm-1.58594 8.05469c.77344-2.04688.47656-4.86328-.67969-6.85547-2.07031-3.72266-7.2461-1.23047-7.79297 2.34375-.52734 5.00781 5.875 11.35547 8.47266 4.51172zm0 0"/>
  <path fill="#cea876" d="M205.8086 346.36328c-4.96876 1.96875-9.3086-3.26172-9.40235-7.95703-.72266-8.86719 9.47656-10.5 13.34766-3.64844 1.77734 3.92969.15234 10.03125-3.94532 11.60547zm-4.83594-13.11719c-3.04297 1.88282-2.12891 6.90235-.4336 9.19532.625.88671 2.60938 2.66406 4.14063 1.86328 2.7539-1.1289 3.83984-5.91797 2.65234-8.65625-.91406-2.04297-4.15625-3.55469-6.35937-2.40235zm0 0M160.46484 304.33594c-1.0664-.2539-2.11718-.59766-3.08984-1.10547-1.375-.8125-2.67578-1.79688-4.3164-1.97266-4.46485-.65625-8.4297 3.96875-7.17188 8.30078.89453 3.2422 3.84766 5.28516 4.60156 8.64063.61328 3.14844 1.00781 7.41015 4.91406 8.16015 4.09375.9922 6.01953-2.71484 7.98438-5.1953 2.14453-2.6836 5.69922-3.2422 7.91406-5.76563 2.80469-3.07031 1.71484-8.60156-2.10156-10.28906-2.74219-1.40235-5.88672.18359-8.73438-.77344zm0 0M167.13281 324.41797c.79688-3.20313 5.41406-4.64453 8.07813-2.84766 2.33203 1.79688 2.33984 5.36719 2.04297 8.0625-.23828 2.47656-2.10547 5.13672-4.91797 4.72266-3.55078-1.125-6.01563-6.625-5.20313-9.9375zm0 0M145.82031 319.22656c.8711-3.16797-2.34765-6.6875-5.59375-6.4336-3.44531.3711-6.96484 6.45704-6.22656 9.72267.39453 2.0078 2.57813 3.51171 4.64063 2.77343 2.94921-.79297 6.28906-3.03515 7.17968-6.0625zm0 0M166.44922 335.02344c.59375 3.76172-1.13281 8.46875-5.01953 9.9336-6.23828 2.04687-8.65235-6.98829-6.19531-11.12892 2.71484-4.30859 10.17968-4.59765 11.21484 1.19532zm0 0M140.92969 328.92188c-2.23828 3.09765-2.8086 8.0664-.03125 11.14062 4.67578 4.57422 10.86328-2.28516 10.57422-7.14453-.46094-5.08985-7.02344-8.67578-10.54297-3.9961zm0 0M100.90625 288.85938c-.75-2.8047-.80469-6.16016 1.42578-8.41407 3.51953-3.8125 9.40234-3.07812 11.95703 1.21485 1.76172 2.8203 4.75781 4.10156 7.8086 5.10156 2.89843 1.20703 4.5703 4.54687 4.07421 7.76953-.4453 3.1914-3.13671 5.78516-6.28124 6.26563-2.22266.48437-4.70704.17578-6.70313 1.28515-1.04297.57813-2.0586 1.2539-3.17969 1.79297-3.76562 2.23047-9.08203-.10156-9.45703-4.58984-.21094-2.04297.40234-3.94532.76172-5.82813.26953-1.48828-.0664-3.01562-.40625-4.59765zm9.39063-7.98829c-2.83594-1.90625-7.2422.28516-7.53907 3.71094-.29687 3.09375 1.51172 6.16016.875 9.34375-.36719 2.2539-1.28515 4.66016-.28906 6.60938 1.75781 2.64843 4.38672 2.08203 7.32031.27343 2.03125-1.3789 4.58203-1.9414 6.79297-2.02734 1.33984-.125 2.5664-.21094 3.71094-.75781 2.27734-1.03906 3.4961-3.91797 2.60547-6.27344-1.48828-4.59766-6.95703-2.23438-11.30469-8.69922-.73047-1.0664-1.40234-1.72265-2.17188-2.17969zm0 0"/>
  <path fill="#cea876" d="M118.73828 302.53516c6.17969.5703 6.8086 5.99218 4.26953 10.78906-1.97265 4.58203-7.79687 6.1875-10.0664 1.11328-2.03125-4.6836-.72657-12.4375 5.79687-11.90234zm-.4961 12.46093c2.38282-1.11328 4.66798-6.14843 3.46094-8.54687-.98828-1.875-4.88671-2.22656-6.10156-.44531-1.54297 2.11328-1.26172 5.5078-.33984 7.75.41016 1.29296 1.84375 1.76562 2.98047 1.24218zm0 0M89.52734 296.73047c-2.78125-.26953-4.64453-2.89063-4.17968-5.59375.41796-2.63672 3.23828-5 5.64062-6.26172 3.78516-2.1914 7.42969-.46484 8.72656 3.32813 2.10547 6.32812-5.15234 9.25-10.1875 8.52734zm5.66016-10.41016c-2.51172-.64062-6.9961 2.91797-7.4375 5.41406-.66016 4.53516 7.78516 2.57813 9.32422.41016 1.48828-1.64844.23047-5.14062-1.88672-5.82422zm0 0"/>
  <path fill="#cea876" d="M111.28516 314.58594c-1.2422 5.58984-8.4297 10.55078-13.33985 5.57422-2.84765-3.33985-1.39844-9.4922 2.02735-12.1211 4.7578-3.3711 12.84765-.04687 11.3125 6.54688zm-6.8125 4.57422c2.59375-1.21094 5.73828-5.21094 3.96484-8.32422-1.34766-2.0039-4.89844-2.23438-6.76172-.85547-3.98828 3.3164-3.8164 12.10937 2.79688 9.17969zm0 0"/>
  <path fill="#cea876" d="M88.08984 312.79297c-3.16015-1.26172-3.87109-4.65625-3.48828-7.21875.34766-2.51953 2.03516-5.0586 4.16016-6.61719 5.91797-4.39453 12.26172 2.36719 10.32031 8.41016-1.51172 4.02344-6.9961 7.2461-10.99219 5.42578zm5.83594-12.67969c-3.48047-.83203-6.38281 3.3789-6.80078 6.19531-.64453 4.08985 2.46484 5.71875 6.26953 3.57422 1.41797-.83203 2.73047-2.10547 3.33203-3.57812.79297-2.08594-.39062-5.49219-2.80078-6.1914zm0 0M85.72656 251.01172c-1.66015-2.21094-1.4336-5.20313-3.0625-7.42188-2.52344-3.60156-8.83594-3.15625-10.94922.8086-1.59375 2.90625-1.05078 6.51562-2.84765 9.36328-1.74219 2.72266-4.53906 5.79297-2.29297 9.2461 2.23047 3.5039 6.02344 2.39843 9.32031 1.97265 3.42578-.41797 6.30469 1.7539 9.67969 1.52344 4.57812-.23438 7.54297-5.53907 5.51172-9.50391-.57422-1.1211-1.45703-1.95313-2.45313-2.70703-1.14453-.92969-2.10937-2.05078-2.90625-3.28125zm0 0M76.24219 269.92969c2.8086-1.65625 7.13672.48437 7.71875 3.70703.58984 3.44531-4.3711 8.41406-7.74219 8.53906-6.61328-.03515-3.76172-10.08984.02344-12.2461zm0 0M64.8711 251.17188c2.84374-1.59375 3-6.45313.57812-8.5-2.3789-1.73438-5.83594-.79297-8.36719.1953-2.32031.8672-4.39062 3.3125-3.1914 5.89845 1.8125 3.11718 8.01171 4.0703 10.98046 2.40625zm0 0M68.2461 276.94922c-1.6172 2.21484-4.37891 3.89453-7.16797 4.05469-2.125.11328-4.94532-.63672-5.84766-3.23829-1.34375-3.95312 2.50781-8.62109 5.95703-9.60546 4.9414-1.14454 10.48438 4.01171 7.0586 8.78906zm0 0M54.53906 254.58594c-3.8125.6211-7.63281 3.70312-7.89453 7.85937-.32031 3.66797 3.98438 5.65235 7.21094 4.99219 2.13672-.3086 4.15625-1.32422 5.29687-2.5625 3.31641-3.78516 1.14844-11.1914-4.61328-10.28906zm0 0M54.5586 197.95703c1.4375-2.51953 3.80859-4.92187 6.96484-4.9375 5.14062-.17578 8.79687 4.3711 7.58203 9.32031-.7461 3.51172.46484 6.02344 1.88281 9.12891 1.3086 2.89063-.07422 6.53125-2.59766 8.36328-1.90234 1.40625-4.58203 1.85547-6.8125 1.05078-3.46874-1.26953-5.35156-4.78125-9.10156-5.25-1.39062-.34765-2.875-.76953-4.15234-1.61328-2.76563-1.60156-3.7461-6.32812-1.39453-8.9414 2.71093-3.09766 5.46875-3.03516 7.6289-7.1211zm12.30078 1.0039c-.67188-3.34374-5.33594-4.92577-7.97266-2.71484-2.375 1.9922-3.30469 5.41407-5.99219 7.22657-1.85937 1.33203-4.17578 2.3828-4.86719 4.46484-.72265 3.11328 1.66016 4.57422 4.9922 5.36719 2.39062.47265 4.55077 1.8789 6.21874 3.3711 1.03906.85937 2.01172 1.65233 3.16016 2.08593 3.1875 1.30078 7.14453-1.64844 6.79297-5.02734-.28516-2.23438-2.20704-4.75-2.44532-7.1836-.55468-2.3789.58204-5.375.11329-7.58984zm0 0M57.48047 220.23828c2.7461 3.10547 2.13672 7.13672-1.53906 9.22656-2.32032 1.4375-5.79688 2.59375-8.3086 1.60157-4.91797-2.30078-3.21093-7.37891.0664-10.46485 2.71876-2.77344 7.01173-3.76172 9.78126-.36328zm-9.125 8.45313c2.41016.92578 7.70312-1.08594 8.47656-3.59375.59766-2.1211-2.13281-5.3086-4.3711-4.5547-2.60937.40626-8.21874 6.40235-4.10546 8.14845zm0 0"/>
  <path fill="#cea876" d="M40.9336 195.47656c-1.72266-2.10547-1.23829-5.35156 1.01171-6.91015 2.16016-1.57032 5.82813-1.2461 8.41407-.44141 4.26562 1.15234 5.5703 4.91797 3.8164 8.53125-2.97266 5.97266-10.1875 2.8711-13.24219-1.17969zm11.3789-3.35547c-1.32031-2.23047-7.01172-2.88672-9.08984-1.43359-3.65625 2.73047 3.64062 7.32422 6.30468 6.88281 2.21094-.05469 3.8047-3.63672 2.78516-5.44922zm0 0M43.69922 223.49219c-2.4961 1.52734-5.9414 1.96875-8.60156.99219-2.6211-.94922-5.1211-3.32032-4.75-6.4922.3125-4.3828 5.68359-7.69921 9.96093-7.1328 5.72657.90234 9.14844 9.12109 3.39063 12.6328zm-8.05469-1.58594c2.04688.77344 4.86328.47656 6.85547-.67969 3.72266-2.07031 1.23047-7.2461-2.34375-7.79297-5.00781-.52734-11.35547 5.875-4.51172 8.47266zm0 0"/>
  <path fill="#cea876" d="M28.5586 205.8086c-1.97266-4.96876 3.26171-9.3086 7.95312-9.40235 8.86719-.72266 10.5 9.47656 3.64844 13.34766-3.9297 1.77734-10.03125.15234-11.60157-3.94532zm13.11328-4.83594c-1.88282-3.04297-6.90235-2.12891-9.19532-.4336-.88672.625-2.66015 2.60938-1.86328 4.14063 1.1289 2.7539 5.91797 3.83984 8.65625 2.65234 2.04297-.91406 3.5586-4.15625 2.40234-6.35937zm0 0M70.58203 160.46484c.2539-1.0664.59766-2.11718 1.10547-3.08984.8125-1.375 1.79688-2.67578 1.97656-4.3164.65235-4.46485-3.97265-8.4297-8.30469-7.17188-3.24218.89453-5.28515 3.84766-8.64062 4.60156-3.14844.61328-7.41016 1.00781-8.16016 4.91406-.99218 4.09375 2.71485 6.01953 5.19532 7.98438 2.68359 2.14453 3.24218 5.69922 5.76562 7.91406 3.07031 2.80469 8.60156 1.71484 10.28906-2.10156 1.40235-2.74219-.18359-5.88672.77344-8.73438zm0 0M50.5 167.13281c3.20703.79688 4.64453 5.41406 2.85156 8.07813-1.80078 2.33203-5.3711 2.33984-8.0625 2.04297-2.48047-.23828-5.13672-2.10547-4.72656-4.91797 1.125-3.55078 6.625-6.01563 9.9375-5.20313zm0 0M55.6914 145.82031c3.17188.8711 6.6875-2.34765 6.4336-5.59375-.3711-3.44531-6.45703-6.96484-9.72266-6.22656-2.0078.39453-3.51172 2.57813-2.77343 4.64063.79297 2.94921 3.03906 6.28906 6.0625 7.17968zm0 0M39.89844 166.44922c-3.76563.59375-8.47266-1.13281-9.9375-5.01953-2.04688-6.23828 6.98828-8.65235 11.1289-6.19531 4.3086 2.71484 4.59766 10.17968-1.1914 11.21484zm0 0M45.9961 140.92969c-3.09766-2.23828-8.0625-2.8086-11.14063-.03125-4.57422 4.67578 2.28516 10.86328 7.14453 10.57422 5.08984-.46094 8.67578-7.02344 3.9961-10.54297zm0 0M86.0625 100.90625c2.80078-.75 6.15625-.80469 8.41406 1.42578 3.8086 3.51953 3.07813 9.40234-1.21875 11.95703-2.82031 1.76172-4.10156 4.75781-5.10156 7.8086-1.20703 2.89843-4.54297 4.5703-7.76953 4.07421-3.1914-.4453-5.78516-3.13671-6.26172-6.28124-.48828-2.22266-.17969-4.70704-1.28906-6.70313-.57422-1.04297-1.25-2.0586-1.79297-3.17969-2.23047-3.76562.10156-9.08203 4.58984-9.45703 2.04297-.21094 3.94922.40234 5.82813.76172 1.48828.26563 3.01562-.0664 4.60156-.40625zm7.98438 9.39063c1.90624-2.83594-.28516-7.2422-3.71094-7.53907-3.09375-.29687-6.16016 1.51172-9.34375.875-2.2539-.36719-4.66016-1.28515-6.60938-.28906-2.64844 1.75781-2.08203 4.38672-.27344 7.32031 1.37891 2.03125 1.94141 4.58203 2.02735 6.79297.125 1.33984.21094 2.5664.75781 3.71094 1.03906 2.27734 3.91797 3.4961 6.27734 2.60547 4.59376-1.48828 2.23047-6.95703 8.69532-11.30469 1.0664-.73047 1.72265-1.40234 2.17969-2.17188zm0 0"/>
  <path fill="#cea876" d="M72.38281 118.73828c-.57031 6.17969-5.98828 6.8086-10.78906 4.26953-4.58203-1.97265-6.1836-7.79687-1.11328-10.0664 4.6836-2.03125 12.4375-.72657 11.90234 5.79687zm-12.46094-.4961c1.11329 2.38282 6.14844 4.66798 8.54688 3.46094 1.875-.98828 2.22656-4.88671.44531-6.10156-2.11328-1.54297-5.50781-1.26172-7.75-.33984-1.29297.41016-1.76562 1.84375-1.24218 2.98047zm0 0M78.1875 89.52734c.26953-2.78125 2.89063-4.64453 5.59375-4.17968 2.63672.41796 5 3.23828 6.26172 5.64062 2.1914 3.78516.46484 7.42969-3.32813 8.72656-6.32812 2.10547-9.24609-5.15234-8.52734-10.1875zm10.41016 5.66016c.64062-2.51172-2.91797-6.9961-5.41407-7.4375-4.53515-.66016-2.57812 7.78516-.40625 9.32422 1.64844 1.48828 5.13672.23047 5.82032-1.88672zm0 0"/>
  <path fill="#cea876" d="M60.33203 111.28516c-5.58984-1.2422-10.55078-8.4297-5.57422-13.33985 3.33985-2.84765 9.49219-1.39844 12.125 2.02735 3.36719 4.7578.04297 12.84765-6.55078 11.3125zm-4.57422-6.8125c1.21094 2.59375 5.21094 5.73828 8.32422 3.96484 2.44531-1.75781 2.29688-6.3086-.35156-7.875-4.0664-2.88281-10.54297-1.84375-7.97266 3.91016zm0 0"/>
  <path fill="#cea876" d="M62.125 88.08984c1.26563-3.16015 4.66016-3.87109 7.21875-3.48828 2.51953.34766 5.0625 2.03516 6.61719 4.16016 4.39453 5.91797-2.36719 12.26172-8.41016 10.32031-4.02344-1.51172-7.2461-6.9961-5.42578-10.99219zm12.67969 5.83594c.83203-3.48047-3.3789-6.38281-6.19531-6.80078-4.08985-.64453-5.71876 2.46484-3.57032 6.26953.82813 1.41797 2.10156 2.73047 3.57422 3.33203 2.08594.79297 5.49219-.38672 6.1914-2.80078zm0 0M123.90625 85.72656c2.21484-1.66015 5.20313-1.4336 7.42188-3.0625 3.60156-2.52344 3.15625-8.83594-.8086-10.94922-2.90625-1.59375-6.51172-1.05078-9.36328-2.84765-2.72266-1.74219-5.79297-4.53906-9.2461-2.29297-3.5039 2.23047-2.39843 6.02344-1.97265 9.32031.41797 3.42578-1.7539 6.30469-1.52344 9.67969.23438 4.57812 5.53906 7.54297 9.5039 5.51172 1.1211-.57422 1.95313-1.45703 2.70704-2.45313.92969-1.14453 2.05078-2.10937 3.28125-2.90625zm0 0M104.98828 76.24219c1.65625 2.8086-.48437 7.13672-3.70703 7.71875-3.44531.58984-8.41406-4.3711-8.53906-7.74219.03515-6.61328 10.08984-3.76172 12.2461.02344zm0 0M123.7461 64.8711c1.59374 2.84374 6.45312 3 8.5.57812 1.73437-2.3789.79296-5.83594-.19532-8.36719-.86719-2.32031-3.3125-4.39062-5.89844-3.1914-3.11718 1.8125-4.0703 8.01171-2.40625 10.98046zm0 0M97.96875 68.2461c-2.21484-1.6172-3.89453-4.37891-4.05469-7.16797-.11328-2.125.64063-4.94532 3.23828-5.84766 3.95313-1.34375 8.6211 2.50781 9.60547 5.95703 1.14844 4.9414-4.01172 10.48438-8.78906 7.0586zm0 0M120.33203 54.53906c-.6211-3.8125-3.70312-7.63281-7.85937-7.89453-3.66797-.32031-5.64844 3.98438-4.9922 7.21094.3086 2.13672 1.32423 4.15625 2.56642 5.29687 3.78124 3.31641 11.1875 1.14844 10.28515-4.61328zm0 0M176.96094 54.5586c2.51953 1.4375 4.92578 3.80859 4.9375 6.96484.17578 5.14062-4.3711 8.79687-9.32031 7.58203-3.51172-.7461-6.02344.46484-9.12891 1.88281-2.89063 1.3086-6.53125-.07422-8.36328-2.59766-1.40235-1.90234-1.85547-4.58203-1.05078-6.8125 1.26953-3.46874 4.78125-5.35156 5.25-9.10156.34765-1.39062.76953-2.875 1.61328-4.15234 1.60156-2.76563 6.32812-3.7461 8.9414-1.39453 3.09766 2.71093 3.03516 5.46875 7.1211 7.6289zm-1.0039 12.30078c3.34374-.67188 4.92968-5.33594 2.71483-7.97266-1.99218-2.375-5.41015-3.30469-7.22656-5.99219-1.33203-1.85937-2.38281-4.17578-4.46484-4.86719-3.11328-.72265-4.57422 1.66016-5.36719 4.9922-.47266 2.39062-1.8789 4.55077-3.3711 6.21874-.85937 1.03516-1.65234 2.01172-2.08593 3.16016-1.30078 3.1875 1.64844 7.14453 5.02734 6.79297 2.23438-.28516 4.75-2.20704 7.1836-2.44532 2.3789-.55468 5.375.58204 7.58984.11329zm0 0M154.67969 57.48047c-3.10547 2.7461-7.13672 2.13672-9.22266-1.53906-1.4414-2.32032-2.59766-5.79688-1.60547-8.3086 2.30078-4.91797 7.3789-3.21093 10.46485.0664 2.77343 2.71876 3.76172 7.01173.36328 9.78126zm-8.45313-9.125c-.92578 2.41016 1.08594 7.70312 3.59375 8.47656 2.1211.59766 5.3086-2.13281 4.55469-4.3711-.40625-2.60937-6.39844-8.21874-8.14844-4.10546zm0 0"/>
  <path fill="#cea876" d="M179.4414 40.9336c2.10938-1.72266 5.35548-1.23438 6.91407 1.01171 1.5664 2.16016 1.24219 5.82422.4375 8.41407-1.15234 4.26562-4.91406 5.5703-8.53125 3.8164-5.97266-2.97266-2.8711-10.1875 1.17969-13.24219zm3.35548 11.3789c2.23046-1.32031 2.88671-7.01172 1.4375-9.08984-2.73438-3.65625-7.32813 3.64062-6.88672 6.30468.05859 2.21094 3.63672 3.8047 5.44922 2.78516zm0 0M151.42578 43.69922c-1.52734-2.4961-1.96875-5.9414-.99219-8.60156.95313-2.6211 3.32032-5.1211 6.4961-4.75 4.3789.3125 7.69531 5.68359 7.1289 9.96093-.90234 5.72657-9.12109 9.14844-12.6328 3.39063zm1.58594-8.05469c-.76953 2.04688-.47656 4.86328.6836 6.85547 2.0664 3.72266 7.24218 1.23047 7.78905-2.34375.52735-5.00781-5.875-11.35547-8.47265-4.51172zm0 0"/>
  <path fill="#cea876" d="M169.10938 28.5586c4.96875-1.97266 9.30859 3.26171 9.40234 7.95312.72266 8.86719-9.47656 10.5-13.34766 3.64844-1.77734-3.9297-.15234-10.03125 3.94531-11.60157zm4.83593 13.11328c3.04297-1.88282 2.1289-6.90235.4336-9.19532-.6211-.88672-2.60938-2.66015-4.14063-1.86328-2.7539 1.1289-3.83594 5.91797-2.65234 8.65625.91406 2.04297 4.15625 3.5586 6.35937 2.40234zm0 0M214.45313 70.58203c1.0664.2539 2.11718.59766 3.08984 1.10547 1.3789.8125 2.67578 1.79688 4.3164 1.97656 4.46485.65235 8.4336-3.97265 7.17188-8.30469-.89453-3.24218-3.84766-5.28515-4.60156-8.64062-.61328-3.14844-1.00781-7.41016-4.91406-8.16016-4.09375-.99218-6.01954 2.71485-7.98438 5.19532-2.14453 2.68359-5.69922 3.24218-7.91406 5.76562-2.80078 3.07031-1.71485 8.60156 2.10547 10.28906 2.73828 1.40235 5.8828-.18359 8.73047.77344zm0 0M207.78516 50.5c-.79688 3.20703-5.41407 4.64453-8.07813 2.85156-2.33203-1.80078-2.33984-5.3711-2.03906-8.0625.23437-2.48047 2.10156-5.13672 4.91406-4.72656 3.55078 1.125 6.01563 6.625 5.20313 9.9375zm0 0M229.09766 55.6914c-.8711 3.17188 2.34765 6.6875 5.59375 6.4336 3.4453-.3711 6.96484-6.45703 6.22656-9.72266-.39453-2.0078-2.57813-3.51172-4.63672-2.77343-2.95313.79297-6.29297 3.03906-7.1836 6.0625zm0 0M208.46875 39.89844c-.59375-3.76563 1.13672-8.46875 5.01953-9.9375 6.23828-2.04688 8.65234 6.98828 6.19531 11.1289-2.71484 4.3086-10.17968 4.59766-11.21484-1.1914zm0 0M233.98828 45.9961c2.23828-3.09766 2.8086-8.0625.03125-11.14063-4.67578-4.57422-10.86328 2.28516-10.57422 7.14453.46094 5.08984 7.02344 8.67578 10.54297 3.9961zm0 0M274.01172 86.0625c.75 2.80078.80469 6.15625-1.42578 8.41406-3.51953 3.8086-9.40235 3.07813-11.95313-1.21875-1.76562-2.82031-4.76172-4.10156-7.8125-5.10156-2.89453-1.20703-4.57031-4.54297-4.07031-7.76953.4414-3.1914 3.13281-5.78516 6.27734-6.26172 2.22266-.48828 4.70703-.17969 6.70313-1.28906 1.04297-.57422 2.0586-1.25 3.17969-1.79297 3.76562-2.23047 9.08203.10156 9.45703 4.58984.21094 2.04297-.40235 3.94922-.76172 5.82813-.26563 1.48828.0664 3.01562.40625 4.60156zm-9.39063 7.98438c2.83594 1.90624 7.2422-.28516 7.53907-3.71094.29687-3.09375-1.50782-6.16016-.875-9.34375.36718-2.2539 1.28515-4.66016.28906-6.60938-1.7539-2.64844-4.38281-2.08203-7.32031-.27344-2.03125 1.37891-4.58204 1.94141-6.79297 2.02735-1.33985.125-2.5625.21094-3.71094.75781-2.27734 1.03906-3.4961 3.91797-2.60156 6.27734 1.48828 4.59376 6.95312 2.23047 11.30078 8.69532.73047 1.0664 1.40234 1.72265 2.17187 2.17969zm0 0"/>
  <path fill="#cea876" d="M256.17969 72.38281c-6.17969-.57031-6.8086-5.98828-4.26953-10.78906 1.97265-4.58203 7.79687-6.1836 10.0664-1.11328 2.03125 4.6836.72656 12.4375-5.79687 11.90234zm.4961-12.46094c-2.38282 1.11329-4.66798 6.14844-3.46095 8.54688.98828 1.875 4.88672 2.22656 6.10157.44531 1.54296-2.11328 1.26171-5.50781.33984-7.75-.41016-1.29297-1.83984-1.76562-2.98047-1.24218zm0 0M285.39063 78.1875c2.78125.26953 4.64453 2.89063 4.18359 5.59375-.42188 2.64063-3.24219 5-5.64063 6.26172-3.78906 2.1914-7.43359.46484-8.73046-3.32813-2.10547-6.32812 5.15234-9.24609 10.1875-8.52734zm-5.66016 10.41016c2.51172.64062 6.9961-2.91797 7.4414-5.41407.66016-4.53515-7.78906-2.57812-9.32812-.40625-1.48828 1.64844-.23047 5.13672 1.88672 5.82032zm0 0"/>
  <path fill="#cea876" d="M263.63281 60.33203c1.24219-5.58984 8.42969-10.55078 13.33985-5.57422 2.84765 3.33985 1.39843 9.49219-2.02735 12.125-4.75781 3.36719-12.84765.04297-11.3125-6.55078zm6.8125-4.57422c-2.58984 1.21094-5.73828 5.21094-3.96094 8.32422 1.34766 2.0039 4.89454 2.23438 6.75782.85547 1.23047-.9961 2.07422-2.64063 2.46094-4.23438 1.01562-4.51562-1.6836-6.625-5.25782-4.9453zm0 0"/>
  <path fill="#cea876" d="M286.82813 62.125c3.16015 1.26563 3.87109 4.66016 3.49218 7.21875-.35156 2.51953-2.03906 5.0625-4.16406 6.61719-5.91797 4.39453-12.26172-2.36719-10.32031-8.41016 1.51562-4.02344 6.9961-7.2461 10.99219-5.42578zm-5.83204 12.67969c3.48047.83203 6.37891-3.3789 6.79688-6.19531.64453-4.08985-2.46094-5.71876-6.26563-3.57032-1.42187.82813-2.73437 2.10156-3.33593 3.57422-.79297 2.08594.39062 5.49219 2.80468 6.1914zm0 0M289.1914 123.90625c1.66016 2.21484 1.4336 5.20313 3.0625 7.42188 2.52344 3.60156 8.83594 3.15625 10.94923-.8086 1.59375-2.90625 1.05078-6.51172 2.84765-9.36328 1.74219-2.72266 4.53906-5.79297 2.29297-9.2461-2.23047-3.5039-6.02344-2.39843-9.32031-1.97265-3.42578.41797-6.30469-1.7539-9.67578-1.52344-4.57813.23438-7.54297 5.53906-5.51563 9.5039.57422 1.1211 1.45703 1.95313 2.45313 2.70704 1.14843.92969 2.10937 2.05078 2.90625 3.28125zm0 0M298.67578 104.98828c-2.8086 1.65625-7.13281-.48437-7.71875-3.70703-.58594-3.44531 4.3711-8.41406 7.74219-8.53906 6.61328.03515 3.76172 10.08984-.02344 12.2461zm0 0M310.04688 123.7461c-2.84375 1.59374-3 6.45312-.57813 8.5 2.3789 1.73437 5.83594.79296 8.36719-.19532 2.32031-.86719 4.39062-3.3125 3.1914-5.89844-1.8125-3.11718-8.01171-4.0703-10.98046-2.40625zm0 0M306.67188 97.96875c1.61718-2.21484 4.3789-3.89453 7.16796-4.05469 2.125-.11328 4.94532.64063 5.84766 3.23828 1.34375 3.95313-2.50781 8.6211-5.95703 9.60547-4.9414 1.14844-10.48438-4.01172-7.0586-8.78906zm0 0M320.3789 120.33203c3.8125-.6211 7.63282-3.70312 7.89454-7.85937.32031-3.66797-3.98438-5.64844-7.21094-4.9922-2.13281.3086-4.15625 1.32423-5.29688 2.56642-3.3164 3.78124-1.14843 11.1875 4.61329 10.28515zm0 0M320.35938 176.96094c-1.4375 2.51953-3.8086 4.92578-6.96485 4.9375-5.14062.17578-8.79687-4.3711-7.58203-9.32031.7461-3.51172-.46484-6.01954-1.88281-9.12891-1.30469-2.89063.07422-6.53125 2.60156-8.36328 1.90234-1.40235 4.57813-1.85547 6.8086-1.05078 3.46874 1.26953 5.35156 4.78125 9.10156 5.25 1.39062.34765 2.875.76953 4.15234 1.61328 2.76563 1.60156 3.7461 6.32812 1.39453 8.9414-2.71094 3.09766-5.46875 3.03516-7.6289 7.1211zm-12.30079-1.0039c.67188 3.34374 5.33594 4.92968 7.97266 2.71483 2.3789-1.99218 3.30469-5.41015 5.99219-7.22656 1.85937-1.33203 4.17578-2.38281 4.86719-4.46484.72265-3.11328-1.65625-4.57422-4.9922-5.36719-2.39062-.47266-4.55077-1.8789-6.21484-3.3711-1.03906-.85937-2.01562-1.65234-3.16406-2.08593-3.1875-1.30078-7.14453 1.64844-6.79297 5.02734.28516 2.23438 2.20703 4.75 2.44531 7.1836.5547 2.3789-.58203 5.375-.11328 7.58984zm0 0M317.4375 154.67969c-2.7461-3.10547-2.13672-7.13672 1.53906-9.22266 2.32031-1.4414 5.80078-2.59766 8.3086-1.60547 4.91796 2.30078 3.21093 7.3789-.06641 10.46485-2.71875 2.77343-7.01172 3.76172-9.78125.36328zm9.125-8.45313c-2.41016-.92578-7.70313 1.08594-8.47266 3.59375-.60156 2.1211 2.13282 5.3086 4.3711 4.55469 2.60547-.40625 8.21484-6.39844 4.10156-8.14844zm0 0"/>
  <path fill="#cea876" d="M333.98438 179.4414c1.72265 2.10938 1.23828 5.35548-1.01172 6.91407-2.16016 1.5664-5.82422 1.24219-8.41407.4375-4.26171-1.15234-5.5703-4.91406-3.8164-8.53125 2.97265-5.97266 10.1875-2.8711 13.24219 1.17969zm-11.37891 3.35548c1.32031 2.23046 7.01172 2.88671 9.08984 1.4375 3.65625-2.73438-3.63672-7.32813-6.30078-6.88672-2.21484.05859-3.8086 3.63672-2.78906 5.44922zm0 0M331.21875 151.42578c2.5-1.52734 5.9414-1.96875 8.60547-.99219 2.6211.95313 5.11719 3.32032 4.7461 6.4961-.3125 4.3789-5.6836 7.69531-9.95704 7.1289-5.73047-.90234-9.14844-9.12109-3.39453-12.6328zm8.05469 1.58594c-2.04297-.76953-4.86328-.47656-6.85547.6836-3.72266 2.0664-1.23047 7.24218 2.34375 7.78905 5.00781.52735 11.35547-5.875 4.51172-8.47265zm0 0"/>
  <path fill="#cea876" d="M346.36328 169.10938c1.96875 4.96875-3.26172 9.30859-7.95703 9.40234-8.86719.72266-10.4961-9.47656-3.64844-13.34766 3.9336-1.77734 10.03125-.15234 11.60547 3.94531zm-13.11719 4.83593c1.88282 3.04297 6.90235 2.13281 9.19532.4336.88671-.6211 2.66406-2.60938 1.86328-4.14063-1.1289-2.7539-5.91797-3.83594-8.65625-2.65234-2.04297.91406-3.55469 4.15625-2.40235 6.35937zm0 0"/>
</svg>
