<svg xmlns="http://www.w3.org/2000/svg" width="500" viewBox="0 0 375 374.99999" height="500" version="1.0">
  <path fill="#cea876" d="M165.3086 173.4961a6.2196 6.2196 0 00-.39844-.1875c-5.6211-1.86329-11.41016 2.13671-14.4336 6.78906-2.96875 4.09765-4.10156 10.80859.14453 14.36718.6211.50782 1.3711.83203 2.14844 1.01172 6.80078 1.13281 13.08594-4.40625 15.33203-10.58203 1.74219-3.83594 1.16016-9.33594-2.79297-11.39844zm-21.91798-11.48048c-3.23828-1.64062-7.49218.31641-9.66015 3.13672-4.35938 5.5625-5.70313 14.66016-.45703 19.98438.51953.44531 1.1211.78516 1.76953 1.01172 4.63281 1.5664 9.03125-2.30469 10.95312-6.3125 2.64063-5.22656 3.20313-12.60547-1.28906-16.89063-.41016-.39062-.85156-.69531-1.3164-.92969zm26.36329 36.62891c-5.70703-2.63672-12.50391.9336-15.85157 5.875-2.7578 3.38281-3.48828 9.5.58985 12.07813 5.94922 3.10547 13.42578-1.14453 16.55469-6.57422 2.33593-3.45313 2.59765-9.02735-1.29297-11.3789zm-49.05078-24.78125c-2.33985-1.28516-5.42188-1.09766-7.4961.91797-5.53516 5.39844-5.83594 15.84375.20703 20.85547 2.5625 2.01172 6.23047 1.14062 8.35547-1.13672 4.53125-4.8789 5.01563-13.11328 1.23828-18.46875-.58594-.9336-1.39062-1.66406-2.30469-2.16797zm18.52734 24.98438c-4.61328-2.46875-10.57422-2.60938-15.45703-.67578-5.4375 2.39062-10.65625 5.77343-14.48438 10.42187-3.26562 3.07422-2.73437 8.91797 1.19531 11.0625 4.66797 2.6875 10.51954 1.57031 15.3672 3.85938 4.33593 1.53125 6.78515 5.57421 9.63671 8.89453 2.35156 2.97656 6.85547 4.74609 10.21875 2.23437 3.0586-2.75 3.20313-7.36719 3.32813-11.20312-.41797-6.57032-.91797-13.50391-4.28516-19.27735-1.33203-2.34765-3.26563-4.10937-5.51953-5.3164zm0 0M249.59375 45c-.1289-.0664-.26172-.1289-.39453-.1875-5.625-1.86328-11.41406 2.14063-14.4336 6.78906-2.97265 4.09766-4.10156 10.8086.14063 14.36719.6211.50781 1.375.83203 2.15234 1.01172 6.79688 1.13281 13.08203-4.40625 15.32813-10.58203 1.7461-3.83203 1.16016-9.33594-2.79297-11.39844zm-21.91406-11.48047c-3.23828-1.64062-7.4961.3164-9.66406 3.13672-4.35938 5.5625-5.70313 14.66016-.45704 19.98047.51953.44922 1.125.78906 1.76953 1.01562 4.63672 1.56641 9.03516-2.30859 10.95313-6.3125 2.64063-5.22656 3.20313-12.60547-1.28906-16.89062-.41016-.39063-.85156-.69531-1.3125-.92969zm26.36328 36.6289c-5.70703-2.63671-12.50781.9336-15.85547 5.875-2.75781 3.38282-3.48438 9.4961.58984 12.07813 5.95313 3.10547 13.42578-1.14453 16.5586-6.57812 2.33203-3.44922 2.59375-9.02344-1.29297-11.375zM204.98828 45.3672c-2.33984-1.28516-5.42187-1.09766-7.49219.91797-5.53906 5.39843-5.83593 15.84375.20313 20.85547 2.5625 2.01171 6.23047 1.14062 8.35547-1.13672 4.53125-4.87891 5.01953-13.11329 1.23828-18.46875-.58203-.9336-1.38672-1.66407-2.30469-2.16797zm18.53125 24.98437c-4.61719-2.46875-10.57812-2.60937-15.46094-.67578-5.4375 2.39063-10.65625 5.77344-14.48047 10.42188-3.26953 3.07421-2.73828 8.91796 1.19141 11.0625 4.67188 2.6875 10.52344 1.5703 15.3711 3.85937 4.33203 1.53125 6.78125 5.57422 9.63671 8.89453 2.34766 2.97656 6.85157 4.7461 10.21485 2.23828 3.0625-2.7539 3.20312-7.37109 3.33203-11.21093-.41797-6.56641-.92188-13.5-4.28906-19.26954-1.32813-2.34765-3.26172-4.11328-5.51563-5.3203zm0 0M263.42969 149.66797c-.1289-.0664-.26172-.13281-.39453-.1914-5.625-1.86329-11.41407 2.14062-14.4375 6.79296-2.96875 4.09766-4.10157 10.8086.14453 14.36719.6211.5039 1.3711.83203 2.14844 1.00781 6.80078 1.13281 13.08593-4.40234 15.33203-10.58203 1.74218-3.83203 1.16015-9.33594-2.79297-11.39453zm-21.91406-11.48438c-3.23829-1.63672-7.4961.31641-9.66407 3.14063-4.35937 5.5625-5.70312 14.66016-.45703 19.98047.51953.44922 1.1211.78906 1.76953 1.01562 4.63281 1.5664 9.03516-2.3086 10.95313-6.3164 2.64062-5.22266 3.20312-12.60547-1.28906-16.89063-.41407-.38672-.85157-.69531-1.3125-.92969zm26.36328 36.63282c-5.71094-2.63672-12.50782.92968-15.85547 5.875-2.75781 3.3828-3.48828 9.49609.58984 12.07812 5.95313 3.10156 13.42578-1.14453 16.5586-6.57812 2.33203-3.45313 2.59375-9.02344-1.29297-11.375zm-49.0547-24.78125c-2.33983-1.28516-5.42187-1.09766-7.49608.91797-5.53516 5.39453-5.83594 15.84375.20703 20.85156 2.5625 2.01172 6.23047 1.14062 8.35547-1.13672 4.53125-4.8789 5.01953-13.11328 1.23828-18.46484-.58594-.9336-1.39063-1.66407-2.3047-2.16797zm18.53126 24.98437c-4.61719-2.46875-10.57813-2.60937-15.46094-.67578-5.4375 2.39063-10.65625 5.76953-14.48437 10.42188-3.26563 3.0703-2.73438 8.91406 1.1953 11.0625 4.67188 2.68359 10.52345 1.5664 15.3672 3.85937 4.33593 1.53125 6.78515 5.57422 9.63672 8.89453 2.35156 2.97656 6.85546 4.74219 10.21875 2.23438 3.0625-2.75391 3.20312-7.3672 3.32812-11.20703-.41406-6.56641-.91797-13.50391-4.28516-19.27344-1.32812-2.34766-3.26172-4.10938-5.51562-5.3164zm0 0M190.36328 282.54297c-.1289-.0664-.26172-.1289-.39453-.1875-5.6211-1.86328-11.41406 2.14062-14.4336 6.78906-2.96874 4.09766-4.10156 10.8086.14063 14.36719.6211.50781 1.375.83203 2.15234 1.01172 6.80079 1.13281 13.08594-4.40625 15.32813-10.58203 1.7461-3.83204 1.16016-9.33594-2.79297-11.39844zm-21.91406-11.48047c-3.23828-1.64063-7.4961.3164-9.66406 3.14063-4.35938 5.55859-5.70313 14.65625-.45313 19.98046.51953.44532 1.1211.78516 1.76563 1.01172 4.63672 1.5664 9.03515-2.3086 10.95312-6.3125 2.64063-5.22656 3.20703-12.60547-1.28516-16.89062-.41406-.39063-.85156-.69531-1.3164-.92969zm26.36328 36.63281c-5.70703-2.64062-12.5039.92969-15.85547 5.8711-2.75781 3.3828-3.48437 9.49609.58984 12.07812 5.95313 3.10547 13.42579-1.14453 16.5586-6.57422 2.33203-3.45312 2.59375-9.02734-1.29297-11.375zm-49.05078-24.78515c-2.34375-1.28516-5.42188-1.09766-7.4961.91796-5.53906 5.39844-5.83593 15.84375.20313 20.85547 2.5625 2.01172 6.23047 1.14063 8.35547-1.13671 4.53516-4.87891 5.01953-13.11329 1.23828-18.46875-.58203-.9336-1.38672-1.66407-2.30078-2.16797zm18.52734 24.98828c-4.61719-2.47266-10.57422-2.61328-15.46094-.67969-5.4375 2.39063-10.65234 5.77344-14.48046 10.42188-3.26563 3.07421-2.73438 8.91796 1.1914 11.0625 4.67188 2.6875 10.52344 1.5703 15.3711 3.85937 4.33203 1.53516 6.78125 5.57422 9.63672 8.89453 2.34765 2.97656 6.85546 4.7461 10.21484 2.23828 3.0625-2.7539 3.20312-7.3711 3.33203-11.20703-.41797-6.57031-.91797-13.5039-4.28516-19.27344-1.33203-2.34765-3.26562-4.11328-5.51953-5.3164zm0 0"/>
</svg>
